<?xml version="1.0" encoding="utf-8"?>
<!-- Generator: Adobe Illustrator 25.2.0, SVG Export Plug-In . SVG Version: 6.00 Build 0)  -->
<svg version="1.1" id="Calque_1" xmlns="http://www.w3.org/2000/svg" xmlns:xlink="http://www.w3.org/1999/xlink" x="0px" y="0px"
	 viewBox="0 0 800 600" style="enable-background:new 0 0 800 600;" xml:space="preserve">
<style type="text/css">
	.st0{fill:#FFFFFF;stroke:#7F00FF;stroke-width:5;stroke-miterlimit:10;}
	.st1{fill:none;stroke:#7F00FF;stroke-width:5;stroke-miterlimit:10;}
</style>
<path class="st0" d="M697.2,462.1H121c-15,0-27.1-12.1-27.1-27.1V157.2c0-15,12.1-27.1,27.1-27.1h576.2c15,0,27.1,12.1,27.1,27.1
	V435C724.3,450,712.1,462.1,697.2,462.1z"/>
<circle class="st0" cx="175.1" cy="209.3" r="35.8"/>
<line class="st1" x1="239.9" y1="198.5" x2="372.9" y2="198.5"/>
<line class="st1" x1="239.9" y1="221.9" x2="372.9" y2="221.9"/>
<line class="st1" x1="139.3" y1="277.3" x2="613.7" y2="277.3"/>
<line class="st1" x1="139.3" y1="309.3" x2="556.5" y2="309.3"/>
<line class="st1" x1="139.3" y1="341.4" x2="489.3" y2="341.4"/>
<path class="st1" d="M636.9,421.5H535.3c-14.6,0-26.4-11.8-26.4-26.4v0c0-14.6,11.8-26.4,26.4-26.4h101.6
	c14.6,0,26.4,11.8,26.4,26.4v0C663.3,409.6,651.5,421.5,636.9,421.5z"/>
</svg>
