<?xml version="1.0" encoding="utf-8"?>
<!-- Generator: Adobe Illustrator 25.2.0, SVG Export Plug-In . SVG Version: 6.00 Build 0)  -->
<svg version="1.1" id="Calque_1" xmlns="http://www.w3.org/2000/svg" xmlns:xlink="http://www.w3.org/1999/xlink" x="0px" y="0px"
	 viewBox="0 0 800 600" style="enable-background:new 0 0 800 600;" xml:space="preserve">
<style type="text/css">
	.st0{fill:#FFFFFF;stroke:#7F00FF;stroke-width:5;stroke-miterlimit:10;}
	.st1{fill:none;stroke:#7F00FF;stroke-width:5;stroke-miterlimit:10;}
</style>
<path class="st0" d="M230.9,444H44.7c-15,0-27.1-12.1-27.1-27.1V139.1c0-15,12.1-27.1,27.1-27.1h186.2c15,0,27.1,12.1,27.1,27.1
	v277.8C258,431.9,245.9,444,230.9,444z"/>
<path class="st0" d="M493.4,444H307.2c-15,0-27.1-12.1-27.1-27.1V139.1c0-15,12.1-27.1,27.1-27.1h186.2c15,0,27.1,12.1,27.1,27.1
	v277.8C520.5,431.9,508.3,444,493.4,444z"/>
<path class="st0" d="M755.3,444H569.1c-15,0-27.1-12.1-27.1-27.1V139.1c0-15,12.1-27.1,27.1-27.1h186.2c15,0,27.1,12.1,27.1,27.1
	v277.8C782.4,431.9,770.3,444,755.3,444z"/>
<line class="st1" x1="49.1" y1="319.4" x2="220.8" y2="319.4"/>
<line class="st1" x1="49.1" y1="342.8" x2="182.1" y2="342.8"/>
<path class="st1" d="M128.7,408.3H59.1c-5.5,0-10-4.5-10-10v-15.8c0-5.5,4.5-10,10-10h69.6c5.5,0,10,4.5,10,10v15.8
	C138.7,403.8,134.3,408.3,128.7,408.3z"/>
<line class="st1" x1="304.6" y1="319.4" x2="476.4" y2="319.4"/>
<line class="st1" x1="304.6" y1="342.8" x2="437.6" y2="342.8"/>
<path class="st1" d="M384.3,408.3h-69.6c-5.5,0-10-4.5-10-10v-15.8c0-5.5,4.5-10,10-10h69.6c5.5,0,10,4.5,10,10v15.8
	C394.3,403.8,389.8,408.3,384.3,408.3z"/>
<line class="st1" x1="567.1" y1="319.4" x2="738.9" y2="319.4"/>
<line class="st1" x1="567.1" y1="342.8" x2="700.1" y2="342.8"/>
<path class="st1" d="M646.7,408.3h-69.6c-5.5,0-10-4.5-10-10v-15.8c0-5.5,4.5-10,10-10h69.6c5.5,0,10,4.5,10,10v15.8
	C656.8,403.8,652.3,408.3,646.7,408.3z"/>
<path class="st0" d="M212.6,262.6H63c-11.5,0-20.8-9.3-20.8-20.8v-82.3c0-11.5,9.3-20.8,20.8-20.8h149.7c11.5,0,20.8,9.3,20.8,20.8
	v82.3C233.5,253.2,224.1,262.6,212.6,262.6z"/>
<path class="st0" d="M475.1,262.6H325.5c-11.5,0-20.8-9.3-20.8-20.8v-82.3c0-11.5,9.3-20.8,20.8-20.8h149.7
	c11.5,0,20.8,9.3,20.8,20.8v82.3C496,253.2,486.6,262.6,475.1,262.6z"/>
<path class="st0" d="M737.6,262.6H587.9c-11.5,0-20.8-9.3-20.8-20.8v-82.3c0-11.5,9.3-20.8,20.8-20.8h149.7
	c11.5,0,20.8,9.3,20.8,20.8v82.3C758.5,253.2,749.1,262.6,737.6,262.6z"/>
<circle class="st0" cx="182.1" cy="262.6" r="24.9"/>
<circle class="st0" cx="444.4" cy="262.6" r="24.9"/>
<circle class="st0" cx="706.7" cy="262.6" r="24.9"/>
</svg>
