<?xml version="1.0" encoding="utf-8"?>
<!-- Generator: Adobe Illustrator 25.2.0, SVG Export Plug-In . SVG Version: 6.00 Build 0)  -->
<svg version="1.1" id="Calque_1" xmlns="http://www.w3.org/2000/svg" xmlns:xlink="http://www.w3.org/1999/xlink" x="0px" y="0px"
	 viewBox="0 0 800 600" style="enable-background:new 0 0 800 600;" xml:space="preserve">
<style type="text/css">
	.st0{fill:#FFFFFF;stroke:#7F00FF;stroke-width:5;stroke-miterlimit:10;}
	.st1{fill:none;stroke:#7F00FF;stroke-width:5;stroke-miterlimit:10;}
</style>
<path class="st0" d="M661.1,492.2H138.9c-22.1,0-40-17.9-40-40V147.8c0-22.1,17.9-40,40-40h522.1c22.1,0,40,17.9,40,40v304.4
	C701,474.3,683.1,492.2,661.1,492.2z"/>
<path class="st0" d="M418.2,293.7L396.2,281c-4.8-2.8-10.8,0.7-10.8,6.3v25.5c0,5.6,6,9,10.8,6.3l22.1-12.7
	C423,303.5,423,296.5,418.2,293.7z"/>
<circle class="st1" cx="400" cy="300" r="52.1"/>
</svg>
