<svg id="Layer_1" data-name="Layer 1" xmlns="http://www.w3.org/2000/svg" xmlns:xlink="http://www.w3.org/1999/xlink" viewBox="0 0 1363 812"><defs><style>.cls-1{fill:#f5c62c;}.cls-2{fill:#e9f6ff;}.cls-3{clip-path:url(#clip-path);}.cls-23,.cls-4{fill:#fff;}.cls-5{fill:#d1ecfb;}.cls-6{fill:#0063cb;}.cls-7{fill:#f2efdc;}.cls-8{fill:#c0beae;}.cls-9{fill:#2c5871;}.cls-10{fill:#0e303f;}.cls-11{fill:#dcdac8;}.cls-12{fill:#0253a2;}.cls-13{fill:#387bff;}.cls-14{clip-path:url(#clip-path-2);}.cls-15{fill:#7eb3ff;}.cls-16{fill:#8fc4d7;}.cls-17{clip-path:url(#clip-path-3);}.cls-18{fill:#7dc2f5;}.cls-19{fill:#d1dbea;}.cls-20{fill:#bfcbdc;}.cls-21{fill:#b6d2f8;}.cls-22{fill:#cee5ff;}.cls-23{stroke:#fff;stroke-width:5.57px;}.cls-24{fill:url(#linear-gradient);}.cls-25{fill:url(#linear-gradient-2);}.cls-26{fill:url(#linear-gradient-3);}.cls-27{fill:url(#linear-gradient-4);}.cls-28{clip-path:url(#clip-path-4);}.cls-29{fill:#8dcfff;}.cls-30{fill:#24495d;}.cls-31{fill:#a6dae9;}.cls-32{fill:none;}</style><clipPath id="clip-path"><path class="cls-1" d="M551.76,251.29a36,36,0,1,1-36-36A36,36,0,0,1,551.76,251.29Z"/></clipPath><clipPath id="clip-path-2"><path class="cls-1" d="M551.75,337.49a36,36,0,1,1-36-36A36,36,0,0,1,551.75,337.49Z"/></clipPath><clipPath id="clip-path-3"><path class="cls-1" d="M551.75,424.28a36,36,0,1,1-36-36A36,36,0,0,1,551.75,424.28Z"/></clipPath><linearGradient id="linear-gradient" x1="852.74" y1="520.91" x2="893.62" y2="520.91" gradientUnits="userSpaceOnUse"><stop offset="0" stop-color="#7eb3ff"/><stop offset="1" stop-color="#fff"/></linearGradient><linearGradient id="linear-gradient-2" x1="833.93" y1="506.81" x2="874.81" y2="506.81" xlink:href="#linear-gradient"/><linearGradient id="linear-gradient-3" x1="805.73" y1="492.7" x2="846.61" y2="492.7" xlink:href="#linear-gradient"/><linearGradient id="linear-gradient-4" x1="708.9" y1="584.2" x2="926.01" y2="584.2" xlink:href="#linear-gradient"/><clipPath id="clip-path-4"><circle class="cls-1" cx="516.08" cy="508.1" r="35.67"/></clipPath></defs><path class="cls-2" d="M687.76,657.16c-31.15,54-82.12,54-113.27,0L360.6,286.69c-31.15-53.95-5.66-98.1,56.64-98.1H845c62.3,0,87.79,44.14,56.64,98.1Z"/><path class="cls-1" d="M551.76,251.29a36,36,0,1,1-36-36A36,36,0,0,1,551.76,251.29Z"/><g class="cls-3"><path class="cls-4" d="M515.86,287.6a55.61,55.61,0,0,0,21-4l-1.53-15.87c-.18-1.95-2.84-3.29-6.12-3.77a91.26,91.26,0,0,0-26.71,0c-3.29.48-5.94,1.82-6.13,3.77l-1.52,15.87A55.52,55.52,0,0,0,515.86,287.6Z"/><path class="cls-5" d="M515.9,287.6l-6.44-24.42c-2.17.15-4.35.39-6.53.7-.5,2.36-1.45,6.6-1.45,6.6s3,1,3.13,1.57-2.26,2.79-2.26,2.79l3.47,11.87a56.9,56.9,0,0,0,10,.89Z"/><path class="cls-5" d="M529.81,270.48s-1-4.31-1.47-6.66q-3.26-.45-6.51-.66l-6.44,24.43h.47a57.68,57.68,0,0,0,9.58-.81l3.5-12s-2.45-2.27-2.27-2.79S529.81,270.48,529.81,270.48Z"/><path class="cls-6" d="M520.22,287.47l.61,0A138.65,138.65,0,0,0,524,272.77a51.6,51.6,0,0,0,.66-9.52,87.82,87.82,0,0,0-17.61,0,49.92,49.92,0,0,0,.66,9.52,138.65,138.65,0,0,0,3.18,14.67l.6,0,1.53.08c.94,0,1.88.05,2.83.05s1.9,0,2.84-.05Z"/><path class="cls-7" d="M521.1,266.86a5.74,5.74,0,0,1-5.74,5.74h0a5.74,5.74,0,0,1-5.75-5.74v-8.45a5.74,5.74,0,0,1,5.75-5.75h0a5.74,5.74,0,0,1,5.74,5.75Z"/><path class="cls-8" d="M515.36,252.66a5.74,5.74,0,0,0-5.75,5.75v3.25l9.52,9.52a5.71,5.71,0,0,0,2-4.32v-8.45A5.74,5.74,0,0,0,515.36,252.66Z"/><path class="cls-9" d="M534.08,254c.76,2.19-1.19,4.18-4.35,4.35a247.92,247.92,0,0,1-28.33,0c-3.16-.17-5.12-2.16-4.36-4.35q3.25-9.92,6.5-19.83c.75-2.19,2.71-3.86,4.36-3.76,5.1.28,6.33-2.22,11.43-2.51,1.66-.09,7.59,3.23,8.26,6.27Q530.83,244.12,534.08,254Z"/><path class="cls-10" d="M524.81,230.62c-2-1.58-4.49-2.74-5.48-2.69-5.1.29-6.33,2.79-11.43,2.51a3.09,3.09,0,0,0-1.62.42l-3.12,24.3a11.41,11.41,0,0,0,0,3.31q12.36.61,24.75,0a11.43,11.43,0,0,0,0-3.31Z"/><path class="cls-7" d="M525.26,248.81c-1.73,9.72-5.91,14.24-10.45,14.25s-8.73-4.53-10.45-14.25c-1.75-10.08,4.11-16.85,10.45-16.42C521.15,232,527,238.73,525.26,248.81Z"/><path class="cls-9" d="M504.61,235.4c-2,3-3.05,6.32-2.7,9.16a12.35,12.35,0,0,0,9.94-15.37C509.12,230,506.56,232.38,504.61,235.4Z"/><path class="cls-11" d="M514.81,232.39c-.24,0-.47,0-.7,0V263a5.36,5.36,0,0,0,.7.05c4.54,0,8.72-4.53,10.45-14.25C527,238.73,521.15,232,514.81,232.39Z"/><path class="cls-9" d="M515.12,243.46a15.73,15.73,0,0,0,14.62-.78c-.16-7.17-3.26-12.49-8.19-14.14-4.59-2.45-10.58-1-15.89,3.76A15.69,15.69,0,0,0,515.12,243.46Z"/><polygon class="cls-12" points="515.86 279.98 516 272.89 512.77 269.23 509.61 264.11 510.11 270.99 512.98 272.6 515.86 279.98"/><polygon class="cls-13" points="509.61 263.06 512.77 269.23 509.05 272.32 508.49 263.26 509.61 261.66 509.61 263.06"/><polygon class="cls-12" points="515.51 277.87 515.72 272.81 517.83 268.95 520.99 263.83 520.5 270.71 516.21 272.88 515.51 277.87"/><polygon class="cls-13" points="521.13 263.06 517.87 269 521.69 272.32 522.25 263.26 521.13 261.66 521.13 263.06"/></g><path class="cls-1" d="M551.75,337.49a36,36,0,1,1-36-36A36,36,0,0,1,551.75,337.49Z"/><g class="cls-14"><path class="cls-15" d="M515.73,376.2a72.12,72.12,0,0,0,25.65-4.6l-1.86-18.08c-.22-2.22-3.45-4-7.48-4.3a82.73,82.73,0,0,0-32.62,0c-4,.3-7.25,2.08-7.48,4.3l-1.86,18.08A72.16,72.16,0,0,0,515.73,376.2Z"/><path class="cls-11" d="M522.81,351.44a6.77,6.77,0,0,1-6.76,6.77h0a6.77,6.77,0,0,1-6.77-6.77v-6.95a6.77,6.77,0,0,1,6.77-6.76h0a6.76,6.76,0,0,1,6.76,6.76Z"/><path class="cls-8" d="M520.67,355.66c.11.12.24.23.36.35a6.74,6.74,0,0,0,1.78-4.57v-6.95a6.76,6.76,0,0,0-13.52-.2Z"/><path class="cls-11" d="M506.13,334.43c.48,2.76.17,4.59-.53,4.83s-1.73-1.16-2.5-3.83-.65-5.31.36-5.6S505.67,331.65,506.13,334.43Z"/><path class="cls-11" d="M525.13,334.83c-.22,2.79.24,4.59,1,4.77s1.63-1.31,2.15-4,.17-5.35-.86-5.55S525.34,332,525.13,334.83Z"/><path class="cls-7" d="M515.74,316.44c-6.87-.5-13.2,7.45-11.31,19.31a38.47,38.47,0,0,0,2.45,8.93c.91,1.33,2.05,1.51,3.77-2.6.52-.94,2.76-1.77,4.88-1.77H516c2.12,0,4.36.83,4.87,1.77,1.73,4.1,2.86,3.93,3.77,2.6a38.44,38.44,0,0,0,2.46-8.93C528.94,323.89,522.6,315.94,515.74,316.44Z"/><path class="cls-11" d="M516,316.44v23.87c2.11,0,4.31.84,4.82,1.77,1.73,4.1,2.86,3.93,3.77,2.6a38.44,38.44,0,0,0,2.46-8.93C528.91,324,522.76,316.16,516,316.44Z"/><path class="cls-9" d="M527.14,335.28a15.92,15.92,0,0,1-.26,1.59,20.88,20.88,0,0,1-2.43,6.15c-.89.91-2,1-3.71-1.79-.5-.65-2.71-1.22-4.8-1.22h-.41c-2.08,0-4.29.57-4.8,1.22-1.7,2.82-2.82,2.7-3.71,1.78a20.44,20.44,0,0,1-2.42-6.14,13.63,13.63,0,0,1-.26-1.6,8.57,8.57,0,0,0-.15,5.26c1.9,6.89,1.79,10.25,11.55,10.1,10.38-.17,9.64-3.21,11.55-10.1A8.61,8.61,0,0,0,527.14,335.28Z"/><path class="cls-10" d="M526.88,336.87a20.88,20.88,0,0,1-2.43,6.15c-.89.91-2,1-3.71-1.79-.47-.6-2.4-1.13-4.34-1.21v10.59c9.69-.28,9-3.34,10.89-10.08a8.61,8.61,0,0,0-.15-5.25A15.92,15.92,0,0,1,526.88,336.87Z"/><path class="cls-7" d="M518.23,342.58v0h-5s-.94,2.13-.72,2.64.65.55,1.23-.38a6.36,6.36,0,0,1,.59-.81,1.86,1.86,0,0,0,.48.06h1.81a1.86,1.86,0,0,0,.48-.06,8.67,8.67,0,0,1,.59.81c.57.93,1,.89,1.23.38S518.35,342.84,518.23,342.58Z"/><path class="cls-16" d="M499.33,372.45A31.06,31.06,0,0,0,496.07,360a40.6,40.6,0,0,1,.08,11.91Q497.73,372.19,499.33,372.45Z"/><path class="cls-4" d="M504.72,348.34a92.9,92.9,0,0,0-9.36,1.47c-4,.39-7.12,2.07-7.29,4.05L486.71,370a77.6,77.6,0,0,0,21.23,3.34Z"/><path class="cls-5" d="M510,376.9l-4.39-28.34c-2.17.16-3.54.36-5.72.68a57.17,57.17,0,0,1-2.26,6.9s6.27,1.5,6.45,2.05-5.58,2.48-5.58,2.48L501,375.62c3.23.6.27,1.86,3.72,1.86C504.71,377.48,508.46,377.91,510,376.9Z"/><path class="cls-4" d="M509.81,377.71,506.23,348c-2.17.16-4,.71-6.18,1-.5,2.45-1.8,6.55-1.8,6.55s6.27,1.5,6.45,2.05-5.58,3.25-5.58,3.25L501.56,375c3.24.6.27,1.86,3.72,1.86C505.29,376.9,508.23,378.72,509.81,377.71Z"/><path class="cls-4" d="M527.14,347.88a93.58,93.58,0,0,1,9.4,1.19c4,.27,7.18,1.85,7.4,3.83L545.79,369a77.53,77.53,0,0,1-21.12,4Z"/><path class="cls-5" d="M522.19,376.2l4.4-28.33c2.17.16,3.53.35,5.71.67a57.81,57.81,0,0,0,2.27,6.9s-6.28,1.51-6.45,2.05S533.7,360,533.7,360l-2.44,14.95c-3.24.6-.27,1.86-3.72,1.86C527.53,376.78,523.77,377.21,522.19,376.2Z"/><path class="cls-4" d="M522.42,377,526,347.29c2.17.16,4,.7,6.18,1,.5,2.45,1.8,6.55,1.8,6.55s-6.28,1.51-6.45,2.05,5.58,3.25,5.58,3.25l-2.44,14.18c-3.24.6-.27,1.86-3.72,1.86C526.94,376.2,524,378,522.42,377Z"/></g><path class="cls-1" d="M551.75,424.28a36,36,0,1,1-36-36A36,36,0,0,1,551.75,424.28Z"/><g class="cls-17"><path class="cls-4" d="M502.6,423.82a2.3,2.3,0,0,0,2.07,2.47h.51a2.29,2.29,0,0,0,2.07-2.47v-5.57a2.3,2.3,0,0,0-2.07-2.48h-.51a2.3,2.3,0,0,0-2.07,2.48Z"/><polygon class="cls-4" points="488.07 450.37 494.29 437.11 517.02 433.05 538.39 436.84 546.24 446.85 539.48 454.42 518.55 463.89 491.05 456.05 488.07 450.37"/><polygon class="cls-18" points="508.04 437.19 513.39 462.53 521.29 463.69 521.75 455.55 522.22 444.63 525.01 434.17 508.04 437.19"/><polygon class="cls-5" points="525.01 433.24 520.59 447.88 519.2 464.15 523.89 463.97 527.8 449.97 524.08 446.02 529.66 443.7 526.87 434.86 525.01 433.24"/><polygon class="cls-6" points="514.12 444.16 512.29 439.54 514.12 437.84 517.77 437.84 519.59 439.54 517.77 444.16 514.12 444.16"/><polygon class="cls-6" points="514.12 444.24 512.29 464.35 514.12 471.75 517.77 471.75 519.59 464.35 517.77 444.24 514.12 444.24"/><polygon class="cls-5" points="508.81 434.49 511.76 449.04 512.8 464.91 507.01 464.44 504.32 449.27 508.27 446.02 503.39 441.84 505.71 435.56 508.81 434.49"/><path class="cls-7" d="M526.47,430c.54,5.29-4.61,10.1-11.53,10.09h0c-6.91,0-12.07-4.8-11.53-10.09l1.17-13.78A10.43,10.43,0,0,1,514.94,407h0a10.43,10.43,0,0,1,10.36,9.23Z"/><path class="cls-11" d="M526.47,430l-1.17-13.78A10.43,10.43,0,0,0,514.94,407v33.1C521.86,440.09,527,435.28,526.47,430Z"/><path class="cls-7" d="M518.71,438.44c0,1.51-1.69,2.73-3.77,2.73s-3.77-1.22-3.77-2.73,1.69-2.72,3.77-2.72S518.71,436.94,518.71,438.44Z"/><path class="cls-11" d="M518.71,438c0,1.24-1.32,2.25-2.94,2.25s-2.94-1-2.94-2.25,1.31-2.25,2.94-2.25S518.71,436.73,518.71,438Z"/><path class="cls-11" d="M515.77,421.35c-2.71.82-4.75,4.3-4.75,8.46a13.07,13.07,0,0,0,.08,1.42h4.67Z"/><path class="cls-4" d="M526.17,415.77h-.52a2.3,2.3,0,0,0-2.06,2.48s1.89,2.93,1.89,4.22v3.8l.17,0h.52a2.29,2.29,0,0,0,2.06-2.47v-5.57A2.3,2.3,0,0,0,526.17,415.77Z"/></g><rect class="cls-19" x="564.86" y="251.26" width="39.53" height="4.82"/><rect class="cls-19" x="610.03" y="251.26" width="38.68" height="4.82"/><rect class="cls-19" x="564.86" y="261.73" width="74.18" height="4.82"/><rect class="cls-19" x="654.85" y="251.26" width="38.68" height="4.82"/><rect class="cls-19" x="644.41" y="261.73" width="44.03" height="4.82"/><rect class="cls-20" x="564.86" y="233.01" width="63.91" height="7.23"/><rect class="cls-20" x="634.11" y="233.01" width="46.13" height="7.23"/><rect class="cls-19" x="564.86" y="335.85" width="39.53" height="4.82"/><rect class="cls-19" x="610.03" y="335.85" width="38.68" height="4.82"/><rect class="cls-19" x="564.86" y="346.33" width="74.18" height="4.82"/><rect class="cls-19" x="654.85" y="335.85" width="38.68" height="4.82"/><rect class="cls-19" x="644.41" y="346.33" width="44.03" height="4.82"/><rect class="cls-20" x="564.86" y="317.6" width="63.91" height="7.23"/><rect class="cls-20" x="634.11" y="317.6" width="46.13" height="7.23"/><rect class="cls-19" x="564.86" y="507.57" width="39.53" height="4.82"/><rect class="cls-19" x="610.03" y="507.57" width="38.68" height="4.82"/><rect class="cls-19" x="564.86" y="518.05" width="74.18" height="4.82"/><rect class="cls-19" x="654.85" y="507.57" width="38.68" height="4.82"/><rect class="cls-19" x="644.41" y="518.05" width="44.03" height="4.82"/><rect class="cls-20" x="564.86" y="489.32" width="63.91" height="7.23"/><rect class="cls-20" x="634.11" y="489.32" width="46.13" height="7.23"/><rect class="cls-19" x="564.86" y="426.13" width="34.67" height="4.82"/><rect class="cls-19" x="604.47" y="426.13" width="33.92" height="4.82"/><rect class="cls-19" x="564.86" y="436.61" width="65.05" height="4.82"/><rect class="cls-19" x="643.78" y="426.13" width="33.92" height="4.82"/><rect class="cls-19" x="634.62" y="436.61" width="38.62" height="4.82"/><rect class="cls-20" x="564.86" y="407.88" width="56.05" height="7.23"/><rect class="cls-20" x="625.59" y="407.88" width="40.45" height="7.23"/><polygon class="cls-21" points="661.54 310.07 661.54 310.07 656.57 310.07 656.57 310.07 656.57 293.73 656.57 293.73 661.54 293.73 661.54 293.73 661.54 310.07"/><polygon class="cls-21" points="661.54 352.95 661.54 352.95 656.57 352.95 656.57 352.95 656.57 325.38 656.57 325.38 661.54 325.38 661.54 325.38 661.54 352.95"/><polygon class="cls-21" points="661.54 385.63 661.54 385.63 656.57 385.63 656.57 385.63 656.57 359.34 656.57 359.34 661.54 359.34 661.54 359.34 661.54 385.63"/><path class="cls-21" d="M839.21,592.18a26.64,26.64,0,0,1-26.56,26.56H685a26.64,26.64,0,0,1-26.55-26.56V271.86A26.62,26.62,0,0,1,685,245.31H812.65a26.63,26.63,0,0,1,26.56,26.55Z"/><rect class="cls-22" x="662.19" y="249.05" width="173.27" height="365.94" rx="22.81"/><rect class="cls-1" x="670.19" y="292.45" width="157.28" height="280.33"/><polygon class="cls-23" points="768.15 376.8 755.7 376.8 755.7 364.25 744.03 364.25 744.03 376.8 731.59 376.8 731.59 388.56 744.03 388.56 744.03 401.11 755.7 401.11 755.7 388.56 768.15 388.56 768.15 376.8"/><path class="cls-24" d="M852.74,496.21s17.86-9.4,26.32,4.7,9.4,19.75,14.1,37.61S865,555.44,852.74,496.21Z"/><path class="cls-25" d="M833.93,482.11s17.87-9.4,26.33,4.7,9.4,19.74,14.1,37.61S846.16,541.34,833.93,482.11Z"/><path class="cls-26" d="M805.73,468s17.86-9.4,26.32,4.7,9.4,19.74,14.1,37.6S818,527.24,805.73,468Z"/><path class="cls-27" d="M847.73,803s-35.42-155.41-48.58-165.75-38.54-25.39-58.28-68.63-32-64.87-32-64.87,10.34-9.4,18.8-2.82,18.81,19.75,30.09,31,15,4.7,17.86-2.82S782.23,389,786,379.64s11.28-23.5,14.1-5.64,12.22,91.19,15,107.17,33.84,19.74,54.53,32.9,22.56,11.29,25.38,39.49,10.34,54.52,9.4,75.21S923.19,774.78,926,803Z"/><circle class="cls-1" cx="516.08" cy="508.1" r="35.67"/><g class="cls-28"><path class="cls-9" d="M528.2,511.19c0,1.88-1,3.4-2.18,3.4h0c-1.2,0-2.17-1.52-2.17-3.4v-3.4c0-1.87,1-3.39,2.17-3.39h0c1.2,0,2.18,1.52,2.18,3.39Z"/><path class="cls-29" d="M516.08,543.77A35.53,35.53,0,0,0,541.61,533c-4.14-4.58-14.06-7.81-25.63-7.81s-21.32,3.17-25.53,7.7A35.56,35.56,0,0,0,516.08,543.77Z"/><path class="cls-9" d="M524,527.22a7.75,7.75,0,0,1-7.91,8.16h0a7.74,7.74,0,0,1-7.9-8.16c.17-2.82.35-5.65.52-8.48.32-4.33,3.62-7.6,7.38-7.6h0c3.76,0,7.07,3.27,7.38,7.6C523.64,521.57,523.81,524.4,524,527.22Z"/><path class="cls-10" d="M524,522a7.74,7.74,0,0,1-7.91,8.15h0a7.73,7.73,0,0,1-7.9-8.15c.17-2.83.35-5.65.52-8.48.32-4.34,3.62-7.6,7.38-7.61h0c3.76,0,7.07,3.27,7.38,7.61C523.64,516.39,523.81,519.21,524,522Z"/><path class="cls-10" d="M523.46,518.74c-.31-4.3-3.57-7.55-7.3-7.6,0,.16,0,.32,0,.49v22.19c0,.52,0,1,.09,1.55a7.73,7.73,0,0,0,7.76-8.15C523.81,524.4,523.64,521.57,523.46,518.74Z"/><path class="cls-9" d="M507.73,511.19c0,1.88-1,3.4-2.17,3.4h0c-1.2,0-2.17-1.52-2.17-3.4v-3.4c0-1.87,1-3.39,2.17-3.39h0c1.2,0,2.17,1.52,2.17,3.39Z"/><path class="cls-10" d="M504.43,510a2.08,2.08,0,0,0,1.94,2.19h0a2.08,2.08,0,0,0,1.94-2.19v-5.8a2.08,2.08,0,0,0-1.94-2.2h0a2.08,2.08,0,0,0-1.94,2.2Z"/><path class="cls-10" d="M523.85,510a2.08,2.08,0,0,0,1.95,2.19h0a2.08,2.08,0,0,0,1.94-2.19v-5.8a2.08,2.08,0,0,0-1.94-2.2h0a2.08,2.08,0,0,0-1.95,2.2Z"/><path class="cls-10" d="M529.5,499.68c0,8-6,14.41-13.42,14.41s-13.41-6.45-13.41-14.41,6-14.41,13.41-14.41S529.5,491.72,529.5,499.68Z"/><path class="cls-9" d="M527.2,516.32a10.87,10.87,0,0,1-11.12,11.46h0A10.87,10.87,0,0,1,505,516.32q.36-6,.73-11.92c.45-6.1,5.1-10.69,10.38-10.7h0c5.29,0,9.93,4.6,10.38,10.7Q526.84,510.36,527.2,516.32Z"/><path class="cls-30" d="M526.46,504.4c-.44-6.06-5-10.62-10.27-10.69,0,.23,0,.45,0,.68v31.2a19.49,19.49,0,0,0,.13,2.18,10.87,10.87,0,0,0,10.91-11.45Q526.83,510.37,526.46,504.4Z"/><path class="cls-4" d="M525.8,525.47a91.77,91.77,0,0,1,9.28,1.46c3.94.39,7.06,2.05,7.22,4l1.35,16a77,77,0,0,1-21,3.31Z"/><path class="cls-31" d="M520.52,553.78l4.36-28.09c2.15.16,3.51.35,5.67.67a55.57,55.57,0,0,0,2.24,6.84s-6.22,1.5-6.39,2,5.53,2.46,5.53,2.46l-2.42,14.82c-3.21.6-.27,1.85-3.69,1.85C525.81,554.36,522.09,554.78,520.52,553.78Z"/><path class="cls-4" d="M520.75,554.59l3.55-29.47c2.16.16,4,.69,6.13,1,.5,2.43,1.79,6.5,1.79,6.5s-6.22,1.49-6.4,2,5.53,3.22,5.53,3.22l-2.42,14.06c-3.2.59-.26,1.84-3.68,1.84C525.23,553.78,522.32,555.59,520.75,554.59Z"/><path class="cls-4" d="M506.74,525.47a91.57,91.57,0,0,0-9.27,1.46c-4,.39-7.06,2.05-7.23,4l-1.34,16a77,77,0,0,0,21,3.31Z"/><path class="cls-31" d="M512,553.78l-4.35-28.09c-2.16.16-3.51.35-5.67.67a56.83,56.83,0,0,1-2.25,6.84s6.23,1.5,6.4,2-5.53,2.46-5.53,2.46L503,552.51c3.21.6.27,1.85,3.69,1.85C506.74,554.36,510.46,554.78,512,553.78Z"/><path class="cls-4" d="M511.8,554.59l-3.56-29.47c-2.15.16-4,.69-6.12,1-.5,2.43-1.79,6.5-1.79,6.5s6.22,1.49,6.4,2-5.53,3.22-5.53,3.22l2.41,14.06c3.21.59.27,1.84,3.69,1.84C507.32,553.78,510.23,555.59,511.8,554.59Z"/></g><path class="cls-1" d="M760.3,222.89c-23.46,6.28-37.51-7.76-31.22-31.22L772.24,30.6C778.52,7.14,797.71,2,814.88,19.17L932.79,137.08c17.18,17.18,12,36.37-11.42,42.65Z"/><path class="cls-1" d="M951,205.91c-1.9-7.1,2.35-11.35,9.44-9.45l48.73,13.06c7.1,1.9,8.66,7.71,3.46,12.9L977,258.1c-5.2,5.19-11,3.64-12.9-3.46Z"/><rect class="cls-32" x="694.46" y="80.81" width="289.81" height="210.25"/></svg>