<svg id="Layer_1" data-name="Layer 1" xmlns="http://www.w3.org/2000/svg" viewBox="0 0 1363 812"><defs><style>.cls-1{fill:#163f59;}.cls-2{fill:#e9d6b8;}.cls-3{fill:#d4edff;}.cls-4{fill:#194866;}.cls-5{fill:#4a00e0;}.cls-6{fill:#acd4f8;}.cls-7{fill:#b0bfde;}.cls-8{fill:#161711;}.cls-9{fill:#0253a2;}.cls-10{fill:#d1dbea;}.cls-11{fill:#cee5ff;}.cls-12{fill:#6f6fd8;}.cls-13,.cls-14,.cls-15{fill:#e9f6ff;}.cls-13{opacity:0.68;}.cls-14{opacity:0.38;}</style></defs><path class="cls-1" d="M535.82,636.58c.79,1.06.2,3.86.2,3.86s-14,1.76-18.5.62a23,23,0,0,1-5-2.56c-.32-.2-.87-1.38-1.17-1.57-.57-.37-.86.25-1.34-.08a14.49,14.49,0,0,1-2.13-1.62c-1.21-7,.44-9.87.44-9.87S520.25,621,522.48,624C527.7,631.1,534.07,634.25,535.82,636.58Z"/><path class="cls-1" d="M609.52,627.44l2.08,11.38h5.46s.61-1.62,1.54-1.62,1.81,1.62,2.89,1.62h28.13s.51-2.4-.1-3.22a10.85,10.85,0,0,0-3.4-1.53c-5.72-1.68-22.07-6.94-24.92-12.67C617.74,614.43,609.52,627.44,609.52,627.44Z"/><polyline class="cls-2" points="533.37 376.82 521.7 370.33 520.33 368.88 521.95 366.29 524.5 366.61 524.06 359.01 536.27 356.84 542.53 353.92 536.75 374.51"/><path class="cls-3" d="M587.43,191.56S574.36,206,614.6,244s47.58,26.89,47.58,26.89l12.16-8.1,9-42.29L663.93,216l-2.11,2.49s-4.18.42-6.27-2.56-15.43-13-34.65-37.67C612,166.83,589.93,188.78,587.43,191.56Z"/><path class="cls-2" d="M680.14,222.89s40.59-.74,43.82-43c1-12.55,4.18-.41,6.39,11.59s-5.19,45.8-26.88,59.38-31,16.92-39.33,11.38S680.14,222.89,680.14,222.89Z"/><path class="cls-1" d="M620.28,627.49s-6.3,9.13-10.94.59c-10.68-19.69-26.56-68.34-27.09-90.48-.77-31.75,4.61-53.82,4.61-53.82l33.83-11Z"/><path class="cls-1" d="M619.15,327.25l1.54,145.49-30.75,17s-18.46-34.71-20.77-79c-1-18.81-1.46-61,9.07-75.35C592.49,315.9,619.15,327.25,619.15,327.25Z"/><path class="cls-4" d="M607.94,327.25l-5,50.36-13.67,54.63L574.7,483.29,522.74,625l-15.12,1.23s1.91-106.38,20.36-137.4c9.76-16.41,9.76-52.84,14.27-92.07.81-7.07-3.2-23-2.55-29.48a105.08,105.08,0,0,1,15.63-44.46Z"/><path class="cls-3" d="M619.65,329.47,553,328l-28.45-95.27s-18.45-57.6,16.91-58.34,76.13-.74,76.13-.74S646.83,227.37,619.65,329.47Z"/><path class="cls-2" d="M500.11,301.64,542.3,353s-1.52,7.48-4.91,3.51c-.41-.48,1.64-2-.94-3.39-10.36-5.66-34.71-14.37-43.72-23.08a149.91,149.91,0,0,1-20.29-24.92Z"/><path class="cls-5" d="M583.46,187s31,53.46,22.19,112.61c-.69,4.66-6.24,8-6.24,8L591.78,301S592.39,234,583.46,187Z"/><polygon class="cls-6" points="582.35 185.6 580.66 197.41 560.41 178.23 560.41 175.28 582.35 185.6"/><polygon class="cls-6" points="588.72 177.99 592.27 193.35 583.29 185.6 588.72 177.99"/><path class="cls-6" d="M648.81,230.11l5.28-9.55,2.33-3.7a8,8,0,0,0,5.4,1.6l-5.26,6.37-4.83,8.65L649,246.67Z"/><path class="cls-3" d="M527.79,231l-23.17,66.74-5,2,2.79,4.44-28.58,5-12.55-21.81,33.37-90.58s12.91-19,41.65-22.2C557.12,172.3,529.46,225.48,527.79,231Z"/><path class="cls-7" d="M472.07,293.7s19.49,3.65,29.72,5.2l-2.19.87,2.79,4.44-9.89,1.63-14.41.32-2.25-5.33,4.21-1.05Z"/><path class="cls-2" d="M557.9,161c.77,3.66,2.11,9.33,3.59,12.64,2.3,5.17,22.29,11.82,25.37,12.56s-.77-15.51-.77-19.2c0-2.82-1.82-1.95.37-6Z"/><path class="cls-2" d="M592.06,152.78a5.8,5.8,0,0,1-4.81,6.65l-25.78,4.13a5.8,5.8,0,0,1-6.65-4.81l-6.13-38.2a5.8,5.8,0,0,1,4.81-6.64l25.78-4.14a5.8,5.8,0,0,1,6.65,4.81Z"/><path class="cls-1" d="M587.24,122.45s2.86-4.26,3.14-6.63c.14-1.19-1.68-5.36-4.81-6.57s-5,2.27-5,2.27,5,1.82,5.37,2.74S587.24,122.45,587.24,122.45Z"/><path class="cls-4" d="M548.82,138.16s-6.25-14-6.22-18.47,0-7.47,5.2-8.79c7.75-2,8.11-.32,11.54-3.32s9.38-9.85,11.66-10.81c3.78-1.58,10.16-1.26,11.58,6.1,1.06,5.44,4.72,6.22,4.66,6.44-.2.72-1.54,1.57-3.84,3.23-6.59,4.73-10.77,6.13-16.49,5.58s-16.45-2-17,2.24,1.92,16.58,1.6,17.61S549.89,138.73,548.82,138.16Z"/><path class="cls-2" d="M558.78,148.32a1.94,1.94,0,0,1-1.6,2.22l-5.58.89a1.93,1.93,0,0,1-2.21-1.6l-1.63-10.19a1.93,1.93,0,0,1,1.6-2.21l5.57-.9a1.93,1.93,0,0,1,2.21,1.6Z"/><path class="cls-2" d="M592,143a1.94,1.94,0,0,1-1.6,2.22l-5.57.89a1.94,1.94,0,0,1-2.22-1.61L581,134.31a1.93,1.93,0,0,1,1.6-2.22l5.57-.89a1.94,1.94,0,0,1,2.22,1.6Z"/><path class="cls-4" d="M551.83,141.11s2.41,15,3.22,20c.72,4.54,4.12,14.19,29.73,10.09,15.16-2.44,12.81-13.49,12.23-17.15-.45-2.78-4.94-10.62-6.8-12-.06,0,1,6.21,1,6.21A12.27,12.27,0,0,0,579.88,144c-11.63,1.86-13.17,9.09-18.32,9.79C557.61,154.29,553.62,148.34,551.83,141.11Z"/><path class="cls-2" d="M576.68,154.59l8-1.28a1.93,1.93,0,0,0,1.6-2.21l-.18-1.12-11.77,1.89.18,1.12A1.93,1.93,0,0,0,576.68,154.59Z"/><path class="cls-2" d="M723.35,187s-3.84-13-1.85-16.23,10-14.57,10-14.57l2.29-2.7s4.15,1.08-1.3,8.63-.92,5.44-.92,5.44l7.35-4.83,9.46-5.15,3.92-2.86s2.11-1.81,3-1.77c2.44.09,1.47,2.06,1.47,2.06l-14.37,12.51,16.17-7.67s2.22-.61,2.92.45,0,1.36,0,1.36L745,175l8.76-2.95s2.19-.54,2.92.45,1,1.37,1,1.37l-32.28,16.36Z"/><path class="cls-2" d="M744.61,170.14l11.67-4.69s2.5-1.36,4-1.21a1.75,1.75,0,0,1,1.66,1.82L745,175Z"/><path class="cls-2" d="M543.45,630.83l8,43.37,27.5,7.08,14.63.46s-26.8-11.52-32.08-17.44c-8-9-5.78-44.55-5.78-44.55Z"/><path class="cls-8" d="M551,681.28l5.77.46,3.1-4,24.4,7.21,15.53,1.22a13,13,0,0,0-2.11-3.22c-2.83-2.31-14.08-6.54-14.08-6.54s.21,3.55-1.55,4-18.63-4.22-22.63-5.77c-6.87-2.67-8.45-4.81-8.87-4.43C549.44,671.2,551,681.28,551,681.28Z"/><path class="cls-1" d="M530,352l14.07,145.31,16,139-21.23,2.65s-26.28-139.61-29.19-151.67-32.55-108.4-21.92-133.81S530,352,530,352Z"/><path class="cls-2" d="M466.82,627,469,673.08l27.51,7.1,14.63.44S485.14,669.81,481,663c-5.44-9,0-39.41,0-39.41Z"/><path class="cls-8" d="M468.6,680.18l5.77.44,3.1-4,22.07,6.22,18.74.88a3.35,3.35,0,0,0-.77-2.1c-2.78-2.45-16.53-6.55-16.53-6.55s.55,4.21-1.22,4.66S481,675.08,477,673.53c-6.88-2.68-8.46-4.82-8.87-4.44C467,670.08,468.6,680.18,468.6,680.18Z"/><path class="cls-4" d="M463.72,353.93l4,127.08s-5.28,34.47-5.7,46c-1,25.87.14,103.49.14,103.49l23,.93s16.19-140.3,18.27-152.46S529,369,515.4,344.7,463.72,353.93,463.72,353.93Z"/><path class="cls-4" d="M495.34,226c0,18.51-15.32,33.53-34.25,33.53s-34.24-15-34.24-33.53,15.33-33.54,34.24-33.54S495.34,207.5,495.34,226Z"/><path class="cls-4" d="M520.51,157.48a24.66,24.66,0,0,1-24.67,24.66l-6.16-11.72A24.65,24.65,0,0,1,465,145.76v-9.25a24.65,24.65,0,0,1,24.65-24.66h6.16a24.66,24.66,0,0,1,24.67,24.66Z"/><path class="cls-4" d="M465,145.76v-9.25a24.65,24.65,0,0,1,24.65-24.66h6.16a24.52,24.52,0,0,1,15,5.09,55,55,0,0,1-1.28,16.83c-4.12,18-16.17,31.34-29.55,34.67A24.66,24.66,0,0,1,465,145.76Z"/><path class="cls-4" d="M494.93,181.42c0,17.74-14.68,32.12-32.79,32.12s-32.8-14.38-32.8-32.12,14.69-32.1,32.8-32.1S494.93,163.69,494.93,181.42Z"/><path class="cls-1" d="M500.92,224.24c0,18.28-15.13,33.09-33.8,33.09s-33.79-14.81-33.79-33.09,15.13-33.09,33.79-33.09S500.92,206,500.92,224.24Z"/><path class="cls-1" d="M461.59,163.08c12.19-8.26,26.36-8.62,31.65-.81s-.29,20.84-12.49,29.1-26.36,8.63-31.65.81S449.4,171.34,461.59,163.08Z"/><path class="cls-2" d="M510.65,121.22a47.71,47.71,0,0,1-.59,6.95C507.57,144,498,156,487.42,157.5a74.77,74.77,0,0,1-3.49,19.1c-2,6.25-9.28,12.86-9.28,12.86-1.78,11,35.86,27.28,35,25.5s-10.17-14.81-13.2-26.76a24.34,24.34,0,0,1,3.78-19.93,20.18,20.18,0,0,1,14.42-6.82,2.85,2.85,0,0,0,2.07-.91,17.66,17.66,0,0,0,.78-5.16V135A17.41,17.41,0,0,0,510.65,121.22Z"/><path class="cls-9" d="M518.45,347.7l17.66,4.53s-11.5-50.22-14.72-69.84-2.85-26-1.78-32.11,3.92-13.2,0-20-10.05-18-12.49-18.91c-3.93-1.42-8.2-3.21-11.41-6.42C493.94,203.21,518.45,347.7,518.45,347.7Z"/><path class="cls-10" d="M524.61,351.73s-8.57-47.1-12.38-70.89S498,211.87,497,206.16s-4.28-13.32-4.28-13.32-9-6.66-17.12-5.23-14.75,19.5-18.08,37.1,20.93,66.6,20.93,70.88-17.12,40.43-17.12,50.9v11.89S503.67,337.93,524.61,351.73Z"/><polygon class="cls-7" points="476.8 180.71 483.7 185.01 493.56 191.77 491.68 202.25 473.23 185.71 476.8 180.71"/><path class="cls-2" d="M435.07,296.48s15.47,20.61,23.59,19.8a64.1,64.1,0,0,0,7.91-1.37c5.53-1.07,6.6-1,11-1.6a42.55,42.55,0,0,1,4.93-.54s0,2.5-1.66,3.16c-1.5.59-5.23,1.07-6.48,1.6s3.15-.36,9.75.18a94.61,94.61,0,0,1,15.76,2.68c1.73.48,2,.59,2,.68,0,.8-.06,1.54-.86,1.69s-3.21-.06-3.07.06a32.94,32.94,0,0,0,5.18,1.94c.71.17,1.69.38,2.29.59,1.21.42.65,1.9-1.46,2.5,0,0-.49,1-1.13,1.25-.33.11-.56.2-.89.29s-.82.12-1.2.21a27.31,27.31,0,0,1-4.21.59c-.57.05-5.5-.34-5.5,0,0,0,3.88.87,3.81,1.17-.16.66-.9,1.47-1.58,1.42-1.26-.11-3.16-.24-8.33-.9-5.7-.72-6.9-1.3-14.21-.41-6.37.77-5.75,2.1-10.28.35-6.07-2.33-28.13-19.45-32.23-22.12S435.07,296.48,435.07,296.48Z"/><path class="cls-7" d="M426.85,280.25l49.59-53.87s6-14.19,5.71-21.41c-.36-8.56-10.59-15-10.59-15s-22.59,20.35-49.35,49.6-41.39,42.09-26.76,53.51,37.82,26.05,37.82,26.05l8.92-22.84Z"/><polygon class="cls-11" points="318.75 714.94 798.62 714.94 896.13 345.2 416.25 345.2 318.75 714.94"/><polygon class="cls-6" points="318.75 714.94 798.62 714.94 896.13 662.56 639.47 662.56 318.75 714.94"/><polygon class="cls-5" points="995.61 714.94 515.73 714.94 418.22 345.2 898.11 345.2 995.61 714.94"/><polygon class="cls-12" points="533.82 448.54 487.74 448.54 475.39 401.71 521.48 401.71 533.82 448.54"/><polygon class="cls-12" points="592.03 448.54 545.95 448.54 533.6 401.71 579.69 401.71 592.03 448.54"/><polygon class="cls-13" points="650.24 448.54 604.16 448.54 591.81 401.71 637.9 401.71 650.24 448.54"/><polygon class="cls-13" points="708.46 448.54 662.37 448.54 650.03 401.71 696.11 401.71 708.46 448.54"/><polygon class="cls-13" points="766.67 448.54 720.59 448.54 708.24 401.71 754.32 401.71 766.67 448.54"/><polygon class="cls-13" points="824.88 448.54 778.8 448.54 766.45 401.71 812.53 401.71 824.88 448.54"/><polygon class="cls-14" points="883.09 448.54 837.01 448.54 824.66 401.71 870.74 401.71 883.09 448.54"/><polygon class="cls-13" points="548.28 506.59 502.2 506.59 489.85 459.76 535.93 459.76 548.28 506.59"/><polygon class="cls-13" points="606.49 506.59 560.4 506.59 548.06 459.76 594.14 459.76 606.49 506.59"/><polygon class="cls-13" points="665.55 506.59 619.47 506.59 607.12 459.76 653.21 459.76 665.55 506.59"/><polygon class="cls-13" points="723.77 506.59 677.68 506.59 665.34 459.76 711.41 459.76 723.77 506.59"/><polygon class="cls-15" points="781.98 506.59 735.89 506.59 723.55 459.76 769.63 459.76 781.98 506.59"/><polygon class="cls-13" points="840.19 506.59 794.1 506.59 781.75 459.76 827.84 459.76 840.19 506.59"/><polygon class="cls-14" points="898.4 506.59 852.32 506.59 839.96 459.76 886.05 459.76 898.4 506.59"/><polygon class="cls-15" points="564.44 564.64 518.36 564.64 506 517.81 552.09 517.81 564.44 564.64"/><polygon class="cls-13" points="621.79 564.64 575.71 564.64 563.37 517.81 609.45 517.81 621.79 564.64"/><polygon class="cls-15" points="680.86 564.64 634.78 564.64 622.43 517.81 668.51 517.81 680.86 564.64"/><polygon class="cls-13" points="739.08 564.64 692.99 564.64 680.64 517.81 726.73 517.81 739.08 564.64"/><polygon class="cls-13" points="797.28 564.64 751.2 564.64 738.86 517.81 784.93 517.81 797.28 564.64"/><polygon class="cls-13" points="855.5 564.64 809.41 564.64 797.06 517.81 843.15 517.81 855.5 564.64"/><polygon class="cls-14" points="913.7 564.64 867.62 564.64 855.27 517.81 901.36 517.81 913.7 564.64"/><polygon class="cls-13" points="578.89 622.68 532.81 622.68 520.46 575.86 566.55 575.86 578.89 622.68"/><polygon class="cls-13" points="637.1 622.68 591.02 622.68 578.67 575.86 624.76 575.86 637.1 622.68"/><polygon class="cls-13" points="695.32 622.68 649.23 622.68 636.88 575.86 682.97 575.86 695.32 622.68"/><polygon class="cls-13" points="753.52 622.68 707.44 622.68 695.1 575.86 741.18 575.86 753.52 622.68"/><polygon class="cls-13" points="812.59 622.68 766.51 622.68 754.16 575.86 800.25 575.86 812.59 622.68"/><polygon class="cls-13" points="870.8 622.68 824.72 622.68 812.37 575.86 858.46 575.86 870.8 622.68"/><polygon class="cls-14" points="929.01 622.68 882.93 622.68 870.58 575.86 916.67 575.86 929.01 622.68"/><polygon class="cls-13" points="594.2 680.73 548.12 680.73 535.77 633.91 581.85 633.91 594.2 680.73"/><polygon class="cls-13" points="652.41 680.73 606.33 680.73 593.98 633.91 640.07 633.91 652.41 680.73"/><polygon class="cls-13" points="710.63 680.73 664.54 680.73 652.19 633.91 698.28 633.91 710.63 680.73"/><polygon class="cls-13" points="768.84 680.73 722.75 680.73 710.4 633.91 756.49 633.91 768.84 680.73"/><polygon class="cls-12" points="827.9 680.73 781.82 680.73 769.47 633.91 815.55 633.91 827.9 680.73"/><polygon class="cls-12" points="886.11 680.73 840.03 680.73 827.68 633.91 873.76 633.91 886.11 680.73"/><polygon class="cls-12" points="944.32 680.73 898.24 680.73 885.89 633.91 931.97 633.91 944.32 680.73"/><rect class="cls-5" x="750.31" y="461.59" width="2.16" height="40.85" transform="translate(-94.6 767) rotate(-51.3)"/><rect class="cls-5" x="735.65" y="480.93" width="31.48" height="2.16" transform="translate(-78.88 810.01) rotate(-54.24)"/><path class="cls-2" d="M987.14,359.21s-36.27,0-50.46-3.28a175.25,175.25,0,0,0-29.17-3.67s-7.51,3.26-10.21,3.46-8.06-4.06-8.06-4.06L879,354.35s-6.71,5.81-7.86,3.88c-.45-.75,4.12-4.57,4.85-5.21,1.46-1.27,7.13-3.24,7.82-4.45,1-1.71-9.12-.11-10.95,1.39a83.18,83.18,0,0,1-8.3,5.84s-3.06.61-2.76-.57,10.61-8.73,10.61-8.73l9-2-10.18-1.19s-8.06,3.11-8.24.6c0-.58,8.41-3.71,8.41-3.71l11.54-1.24s6.15-.12,8.49.1,12.32,3.41,12.32,3.41,23.12-2.08,32.43-2c13.58.13,39.13-.54,47.32,0S991,358.93,987.14,359.21Z"/><path class="cls-2" d="M883.82,334c-.17,1-.06,2.43.84,2.8,2.47,1,6.71,2.27-.6,3.83-2.71.58,16.14,2.45,16.14,2.45s-5.7-4.63-10.71-7.79C889.49,335.26,883.93,333.33,883.82,334Z"/><path class="cls-2" d="M861.63,348.06l7.87-5.81,12.35-.18.63,2.72s-11.12,1-11.71.86-6.46,3.23-7.59,3.61S861.1,348.68,861.63,348.06Z"/><path class="cls-1" d="M1007.66,167.13s-15.83,1.34-20.78-4.68,9.58-4.07,3,.28-21.19-3.47-17.28-10.79,10.06-10.45,16-6.17,1.08,6.71-1.16,2.53,6.8-14.36,14.4.15,3.5,15.62.9,6,3.49-15.67,8-4.38-2.44,16.86-4.17,11.8,13.06-15.68,14.19-6,2,21.16-5.28,21.3,9.77-25.1,16.46-4.45-6.79,14.35-7.31,9.71,24.65,4,5.12,10.77-12.18-1.5-13.83-6.21,16.44,7.7,6.64,17.72-19.16,8.13-17.2-2.34,13-5,9.47,3.7,1.9,13.84,4,14.75-13.47,7.32-16.48-1.07S995.22,170.13,1007.66,167.13Z"/><path class="cls-2" d="M983.9,159.57l-9,11.64.08,4.39-7.81,10.59,3.48,6.05L969,210.72s-1.36,9.94,8,6.31l9.33-3.63s7.86,24.79,2.43,29.21-9.28,9.43-7.07,12.17c2,2.5,7.34.67,12.81.07,9.75-1.08,16.22.76,20.39,1,3,.15-1.17-1.67-2-7.9s-6-42.66-6-42.66a5.5,5.5,0,0,0,4-.33c2.31-1,12.67-8.95,9.22-13.54s-11-2.55-13.5,1.81-7.07-.3-6-9.8,20.09-15.06-1.56-18C984.58,163.44,983.9,159.57,983.9,159.57Z"/><path class="cls-2" d="M904.66,263.06l-49.74-45.49s-3.31,4-2.06,7.65c3.41,9.9,17.24,24.69,25,33.08A160.26,160.26,0,0,0,902,279Z"/><path class="cls-2" d="M854.85,229.84l-6.28-5.34a28.36,28.36,0,0,1-5.69-6.39c-2.59-4-1.11-7.87,2.24-11.06S851,203.5,851,203.5s5.41,2.4,4.73,7.23,4.18,15.51,2.34,16.29A8.39,8.39,0,0,0,854.85,229.84Z"/><polygon class="cls-2" points="853.31 204.46 847.07 197.72 840.97 191.72 840.19 193.48 843.92 198.34 845.92 208.51 848.38 207.15 853.31 204.46"/><polygon class="cls-2" points="841.78 200.84 835.05 197.32 833.84 198.8 839.84 203.46 844.18 210.3 848.38 207.15 841.78 200.84"/><polygon class="cls-2" points="832.57 201.84 838.1 204.31 841.99 205.43 844.67 209.01 842.17 212.57 839.4 208.63 832.67 204.14 832.57 201.84"/><polygon class="cls-2" points="831.34 207.78 841.92 210.49 843.65 213.16 842.08 215.7 837.79 212.73 832.1 209.53 831.34 207.78"/><path class="cls-2" d="M861.18,229.71c-3.43-3.48-2.67-8.64-2.67-8.64s1.55-12.91-.34-15-3.08-7.65-3.08-7.65-1.62-2.06-2.31,3.16A21.76,21.76,0,0,0,853,208s-3.49,7.05-3.23,9.33c.53,4.71,9,13,9,13S861.62,230.15,861.18,229.71Z"/><path class="cls-3" d="M964.17,250.1l-23,5.56-21.68,4.1-53.76-36.1-12.44,21.46,62.1,50.38L988,286.13a152.32,152.32,0,0,0,17-39.26C1009,231.28,968.76,249.46,964.17,250.1Z"/><path class="cls-8" d="M988.18,709.66l.13,6.34,35.19-.75.46-17-21.23-.26S991.5,708.69,988.18,709.66Z"/><path class="cls-1" d="M1014.14,410.67s-16,104.67-34,150.83c-16,40.91-36.72-11.42-36.72-11.42l27-175.61,50.55-4.92S1024.47,370.76,1014.14,410.67Z"/><path class="cls-4" d="M981,378.75l-4.8,67.36,8.89,5s7.2,99.76,9,104.78c10.1,28.71,34.31,10.84,37.45,1.13s7.22-81.14,5-133.15l-2.22-52Z"/><path class="cls-4" d="M995.61,529s-3.69,17.88-2.39,51.51c.83,21.31,4.11,77.72,8.91,119.66.3,2.57,21.24.18,21.24.18s9.89-136.68,10.46-163.12C1034,529.29,1012,509.85,995.61,529Z"/><path class="cls-3" d="M988.83,239.6l2.6,2.49L1010.69,231l28,20.26s5.31,18.85,5.59,56.58-2.94,173.42-2.94,173.42l-72.06,5.86-7.61-51.56-5.28,46.29-8.79-7S967.06,256.64,988.83,239.6Z"/><path class="cls-1" d="M951.82,547.54s5.91,1.79,24.63,2.06-20.82,151.13-20.82,151.13L929,691.56l15.86-151.35Z"/><path class="cls-8" d="M953.54,699.13l-2.23,13.2-13.4.28-12.57.27-17.59.37-.1-4.83s20.78-7.69,24.8-15.82S953.54,699.13,953.54,699.13Z"/><polygon class="cls-10" points="998.54 241.01 988.83 239.6 978.84 251.89 977.44 287.88 987.99 269.14 1000.88 248.63 998.54 241.01"/><polygon class="cls-7" points="990.77 240.28 989.46 252.59 1016.28 237.53 1013.18 228.71 990.77 240.28"/><polygon class="cls-7" points="989.46 236.77 990.77 240.28 985.5 251.71 985.06 241.6 989.46 236.77"/><path class="cls-15" d="M1014.36,229.88l-24.61,27.54-12.31,30.46-12.3,56.25,28.71-72.06-2.93-2.35,4.69-2.93s9.37-13.47,17-20.5,7.61-8.21,7.61-8.21Z"/><path class="cls-15" d="M1029.4,249.81s14.56,7.49,7.57,29.11c-11.89,36.85-36.72,67.22-41.4,73.3s-20.29,18.71-31.9,15.93c-7.32-1.75-46.57-3.51-46.57-3.51l-1.76-26.37,43.92-.3,4.28-.8s15.09-23.95,27.7-47.27S1029.4,249.81,1029.4,249.81Z"/><path class="cls-15" d="M981.55,279.1s2.82-37.13,4.92-39.37-5.51,4.21-5.51,4.21l-2.12,7.95-2.57,9.63L971,321.28Z"/><rect class="cls-15" x="974.95" y="426.16" width="34.27" height="7.47"/></svg>