<svg id="Layer_1" data-name="Layer 1" xmlns="http://www.w3.org/2000/svg" viewBox="0 0 1363 812"><defs><style>.cls-1{fill:#163f59;}.cls-2{fill:#e9d6b8;}.cls-3{fill:#d4edff;}.cls-4{fill:#194866;}.cls-5{fill:#0f7cff;}.cls-6{fill:#acd4f8;}.cls-7{fill:#b0bfde;}.cls-8{fill:#161711;}.cls-9{fill:#0253a2;}.cls-10{fill:#d1dbea;}.cls-11{fill:#cee5ff;}.cls-12{fill:#0970d6;}.cls-13,.cls-14,.cls-15{fill:#e9f6ff;}.cls-13{opacity:0.68;}.cls-14{opacity:0.38;}</style></defs><path class="cls-1" d="M535.82,626.58c.79,1.06.2,3.86.2,3.86s-14,1.76-18.5.62a23,23,0,0,1-5-2.56c-.32-.2-.87-1.38-1.17-1.57-.57-.37-.86.25-1.34-.08a14.49,14.49,0,0,1-2.13-1.62c-1.21-7,.44-9.87.44-9.87S520.25,611,522.48,614C527.7,621.1,534.07,624.25,535.82,626.58Z"/><path class="cls-1" d="M609.52,617.44l2.08,11.38h5.46s.61-1.62,1.54-1.62,1.81,1.62,2.89,1.62h28.13s.51-2.4-.1-3.22a10.85,10.85,0,0,0-3.4-1.53c-5.72-1.68-22.07-6.94-24.92-12.67C617.74,604.43,609.52,617.44,609.52,617.44Z"/><polyline class="cls-2" points="533.37 366.82 521.7 360.33 520.33 358.88 521.95 356.29 524.5 356.61 524.06 349.01 536.27 346.84 542.53 343.92 536.75 364.51"/><path class="cls-3" d="M587.43,181.56S574.36,196,614.6,234s47.58,26.89,47.58,26.89l12.16-8.1,9-42.29L663.93,206l-2.11,2.49s-4.18.42-6.27-2.56-15.43-13-34.65-37.67C612,156.83,589.93,178.78,587.43,181.56Z"/><path class="cls-2" d="M680.14,212.89s40.59-.74,43.82-43c1-12.55,4.18-.41,6.39,11.59s-5.19,45.8-26.88,59.38-31,16.92-39.33,11.38S680.14,212.89,680.14,212.89Z"/><path class="cls-1" d="M620.28,617.49s-6.3,9.13-10.94.59c-10.68-19.69-26.56-68.34-27.09-90.48-.77-31.75,4.61-53.82,4.61-53.82l33.83-11Z"/><path class="cls-1" d="M619.15,317.25l1.54,145.49-30.75,17s-18.46-34.71-20.77-79c-1-18.81-1.46-61,9.07-75.35C592.49,305.9,619.15,317.25,619.15,317.25Z"/><path class="cls-4" d="M607.94,317.25l-5,50.36-13.67,54.63L574.7,473.29,522.74,615l-15.12,1.23s1.91-106.38,20.36-137.4c9.76-16.41,9.76-52.84,14.27-92.07.81-7.07-3.2-23-2.55-29.48a105.08,105.08,0,0,1,15.63-44.46Z"/><path class="cls-3" d="M619.65,319.47,553,318l-28.45-95.27s-18.45-57.6,16.91-58.34,76.13-.74,76.13-.74S646.83,217.37,619.65,319.47Z"/><path class="cls-2" d="M500.11,291.64,542.3,343s-1.52,7.48-4.91,3.51c-.41-.48,1.64-2-.94-3.39-10.36-5.66-34.71-14.37-43.72-23.08a149.91,149.91,0,0,1-20.29-24.92Z"/><path class="cls-5" d="M583.46,177s31,53.46,22.19,112.61c-.69,4.66-6.24,8-6.24,8L591.78,291S592.39,224,583.46,177Z"/><polygon class="cls-6" points="582.35 175.6 580.66 187.41 560.41 168.23 560.41 165.28 582.35 175.6"/><polygon class="cls-6" points="588.72 167.99 592.27 183.35 583.29 175.6 588.72 167.99"/><path class="cls-6" d="M648.81,220.11l5.28-9.55,2.33-3.7a8,8,0,0,0,5.4,1.6l-5.26,6.37-4.83,8.65L649,236.67Z"/><path class="cls-3" d="M527.79,221l-23.17,66.74-5,2,2.79,4.44-28.58,5-12.55-21.81,33.37-90.58s12.91-19,41.65-22.2C557.12,162.3,529.46,215.48,527.79,221Z"/><path class="cls-7" d="M472.07,283.7s19.49,3.65,29.72,5.2l-2.19.87,2.79,4.44-9.89,1.63-14.41.32-2.25-5.33,4.21-1.05Z"/><path class="cls-2" d="M557.9,151c.77,3.66,2.11,9.33,3.59,12.64,2.3,5.17,22.29,11.82,25.37,12.56s-.77-15.51-.77-19.2c0-2.82-1.82-1.95.37-6Z"/><path class="cls-2" d="M592.06,142.78a5.8,5.8,0,0,1-4.81,6.65l-25.78,4.13a5.8,5.8,0,0,1-6.65-4.81l-6.13-38.2a5.8,5.8,0,0,1,4.81-6.64l25.78-4.14a5.8,5.8,0,0,1,6.65,4.81Z"/><path class="cls-1" d="M587.24,112.45s2.86-4.26,3.14-6.63c.14-1.19-1.68-5.36-4.81-6.57s-5,2.27-5,2.27,5,1.82,5.37,2.74S587.24,112.45,587.24,112.45Z"/><path class="cls-4" d="M548.82,128.16s-6.25-14-6.22-18.47,0-7.47,5.2-8.79c7.75-2,8.11-.32,11.54-3.32s9.38-9.85,11.66-10.81c3.78-1.58,10.16-1.26,11.58,6.1,1.06,5.44,4.72,6.22,4.66,6.44-.2.72-1.54,1.57-3.84,3.23-6.59,4.73-10.77,6.13-16.49,5.58s-16.45-2-17,2.24,1.92,16.58,1.6,17.61S549.89,128.73,548.82,128.16Z"/><path class="cls-2" d="M558.78,138.32a1.94,1.94,0,0,1-1.6,2.22l-5.58.89a1.93,1.93,0,0,1-2.21-1.6l-1.63-10.19a1.93,1.93,0,0,1,1.6-2.21l5.57-.9a1.93,1.93,0,0,1,2.21,1.6Z"/><path class="cls-2" d="M592,133a1.94,1.94,0,0,1-1.6,2.22l-5.57.89a1.94,1.94,0,0,1-2.22-1.61L581,124.31a1.93,1.93,0,0,1,1.6-2.22l5.57-.89a1.94,1.94,0,0,1,2.22,1.6Z"/><path class="cls-4" d="M551.83,131.11s2.41,15,3.22,20c.72,4.54,4.12,14.19,29.73,10.09,15.16-2.44,12.81-13.49,12.23-17.15-.45-2.78-4.94-10.62-6.8-12-.06,0,1,6.21,1,6.21A12.27,12.27,0,0,0,579.88,134c-11.63,1.86-13.17,9.09-18.32,9.79C557.61,144.29,553.62,138.34,551.83,131.11Z"/><path class="cls-2" d="M576.68,144.59l8-1.28a1.93,1.93,0,0,0,1.6-2.21l-.18-1.12-11.77,1.89.18,1.12A1.93,1.93,0,0,0,576.68,144.59Z"/><path class="cls-2" d="M723.35,177s-3.84-13-1.85-16.23,10-14.57,10-14.57l2.29-2.7s4.15,1.08-1.3,8.63-.92,5.44-.92,5.44l7.35-4.83,9.46-5.15,3.92-2.86s2.11-1.81,3-1.77c2.44.09,1.47,2.06,1.47,2.06l-14.37,12.51,16.17-7.67s2.22-.61,2.92.45,0,1.36,0,1.36L745,165l8.76-2.95s2.19-.54,2.92.45,1,1.37,1,1.37l-32.28,16.36Z"/><path class="cls-2" d="M744.61,160.14l11.67-4.69s2.5-1.36,4-1.21a1.75,1.75,0,0,1,1.66,1.82L745,165Z"/><path class="cls-2" d="M543.45,620.83l8,43.37,27.5,7.08,14.63.46s-26.8-11.52-32.08-17.44c-8-9-5.78-44.55-5.78-44.55Z"/><path class="cls-8" d="M551,671.28l5.77.46,3.1-4,24.4,7.21,15.53,1.22a13,13,0,0,0-2.11-3.22c-2.83-2.31-14.08-6.54-14.08-6.54s.21,3.55-1.55,4-18.63-4.22-22.63-5.77c-6.87-2.67-8.45-4.81-8.87-4.43C549.44,661.2,551,671.28,551,671.28Z"/><path class="cls-1" d="M530,342l14.07,145.31,16,139-21.23,2.65s-26.28-139.61-29.19-151.67-32.55-108.4-21.92-133.81S530,342,530,342Z"/><path class="cls-2" d="M466.82,617,469,663.08l27.51,7.1,14.63.44S485.14,659.81,481,653c-5.44-9,0-39.41,0-39.41Z"/><path class="cls-8" d="M468.6,670.18l5.77.44,3.1-4,22.07,6.22,18.74.88a3.35,3.35,0,0,0-.77-2.1c-2.78-2.45-16.53-6.55-16.53-6.55s.55,4.21-1.22,4.66S481,665.08,477,663.53c-6.88-2.68-8.46-4.82-8.87-4.44C467,660.08,468.6,670.18,468.6,670.18Z"/><path class="cls-4" d="M463.72,343.93l4,127.08s-5.28,34.47-5.7,46c-1,25.87.14,103.49.14,103.49l23,.93s16.19-140.3,18.27-152.46S529,359,515.4,334.7,463.72,343.93,463.72,343.93Z"/><path class="cls-4" d="M495.34,216c0,18.51-15.32,33.53-34.25,33.53s-34.24-15-34.24-33.53,15.33-33.54,34.24-33.54S495.34,197.5,495.34,216Z"/><path class="cls-4" d="M520.51,147.48a24.66,24.66,0,0,1-24.67,24.66l-6.16-11.72A24.65,24.65,0,0,1,465,135.76v-9.25a24.65,24.65,0,0,1,24.65-24.66h6.16a24.66,24.66,0,0,1,24.67,24.66Z"/><path class="cls-4" d="M465,135.76v-9.25a24.65,24.65,0,0,1,24.65-24.66h6.16a24.52,24.52,0,0,1,15,5.09,55,55,0,0,1-1.28,16.83c-4.12,18-16.17,31.34-29.55,34.67A24.66,24.66,0,0,1,465,135.76Z"/><path class="cls-4" d="M494.93,171.42c0,17.74-14.68,32.12-32.79,32.12s-32.8-14.38-32.8-32.12,14.69-32.1,32.8-32.1S494.93,153.69,494.93,171.42Z"/><path class="cls-1" d="M500.92,214.24c0,18.28-15.13,33.09-33.8,33.09s-33.79-14.81-33.79-33.09,15.13-33.09,33.79-33.09S500.92,196,500.92,214.24Z"/><path class="cls-1" d="M461.59,153.08c12.19-8.26,26.36-8.62,31.65-.81s-.29,20.84-12.49,29.1-26.36,8.63-31.65.81S449.4,161.34,461.59,153.08Z"/><path class="cls-2" d="M510.65,111.22a47.71,47.71,0,0,1-.59,7C507.57,134,498,146,487.42,147.5a74.77,74.77,0,0,1-3.49,19.1c-2,6.25-9.28,12.86-9.28,12.86-1.78,11,35.86,27.28,35,25.5s-10.17-14.81-13.2-26.76a24.34,24.34,0,0,1,3.78-19.93,20.18,20.18,0,0,1,14.42-6.82,2.85,2.85,0,0,0,2.07-.91,17.66,17.66,0,0,0,.78-5.16V125A17.41,17.41,0,0,0,510.65,111.22Z"/><path class="cls-9" d="M518.45,337.7l17.66,4.53s-11.5-50.22-14.72-69.84-2.85-26-1.78-32.11,3.92-13.2,0-20-10.05-18-12.49-18.91c-3.93-1.42-8.2-3.21-11.41-6.42C493.94,193.21,518.45,337.7,518.45,337.7Z"/><path class="cls-10" d="M524.61,341.73s-8.57-47.1-12.38-70.89S498,201.87,497,196.16s-4.28-13.32-4.28-13.32-9-6.66-17.12-5.23-14.75,19.5-18.08,37.1,20.93,66.6,20.93,70.88-17.12,40.43-17.12,50.9v11.89S503.67,327.93,524.61,341.73Z"/><polygon class="cls-7" points="476.8 170.71 483.7 175.01 493.56 181.77 491.68 192.25 473.23 175.71 476.8 170.71"/><path class="cls-2" d="M435.07,286.48s15.47,20.61,23.59,19.8a64.1,64.1,0,0,0,7.91-1.37c5.53-1.07,6.6-1,11-1.6a42.55,42.55,0,0,1,4.93-.54s0,2.5-1.66,3.16c-1.5.59-5.23,1.07-6.48,1.6s3.15-.36,9.75.18a94.61,94.61,0,0,1,15.76,2.68c1.73.48,2,.59,2,.68,0,.8-.06,1.54-.86,1.69s-3.21-.06-3.07.06a32.94,32.94,0,0,0,5.18,1.94c.71.17,1.69.38,2.29.59,1.21.42.65,1.9-1.46,2.5,0,0-.49,1-1.13,1.25-.33.11-.56.2-.89.29s-.82.12-1.2.21a27.31,27.31,0,0,1-4.21.59c-.57.05-5.5-.34-5.5,0,0,0,3.88.87,3.81,1.17-.16.66-.9,1.47-1.58,1.42-1.26-.11-3.16-.24-8.33-.9-5.7-.72-6.9-1.3-14.21-.41-6.37.77-5.75,2.1-10.28.35-6.07-2.33-28.13-19.45-32.23-22.12S435.07,286.48,435.07,286.48Z"/><path class="cls-7" d="M426.85,270.25l49.59-53.87s6-14.19,5.71-21.41c-.36-8.56-10.59-15-10.59-15s-22.59,20.35-49.35,49.6-41.39,42.09-26.76,53.51,37.82,26.05,37.82,26.05l8.92-22.84Z"/><polygon class="cls-11" points="318.75 704.94 798.62 704.94 896.13 335.2 416.25 335.2 318.75 704.94"/><polygon class="cls-6" points="318.75 704.94 798.62 704.94 896.13 652.56 639.47 652.56 318.75 704.94"/><polygon class="cls-5" points="995.61 704.94 515.73 704.94 418.22 335.2 898.11 335.2 995.61 704.94"/><polygon class="cls-12" points="533.82 438.54 487.74 438.54 475.39 391.71 521.48 391.71 533.82 438.54"/><polygon class="cls-12" points="592.03 438.54 545.95 438.54 533.6 391.71 579.69 391.71 592.03 438.54"/><polygon class="cls-13" points="650.24 438.54 604.16 438.54 591.81 391.71 637.9 391.71 650.24 438.54"/><polygon class="cls-13" points="708.46 438.54 662.37 438.54 650.03 391.71 696.11 391.71 708.46 438.54"/><polygon class="cls-13" points="766.67 438.54 720.59 438.54 708.24 391.71 754.32 391.71 766.67 438.54"/><polygon class="cls-13" points="824.88 438.54 778.8 438.54 766.45 391.71 812.53 391.71 824.88 438.54"/><polygon class="cls-14" points="883.09 438.54 837.01 438.54 824.66 391.71 870.74 391.71 883.09 438.54"/><polygon class="cls-13" points="548.28 496.59 502.2 496.59 489.85 449.76 535.93 449.76 548.28 496.59"/><polygon class="cls-13" points="606.49 496.59 560.4 496.59 548.06 449.76 594.14 449.76 606.49 496.59"/><polygon class="cls-13" points="665.55 496.59 619.47 496.59 607.12 449.76 653.21 449.76 665.55 496.59"/><polygon class="cls-13" points="723.77 496.59 677.68 496.59 665.34 449.76 711.41 449.76 723.77 496.59"/><polygon class="cls-15" points="781.98 496.59 735.89 496.59 723.55 449.76 769.63 449.76 781.98 496.59"/><polygon class="cls-13" points="840.19 496.59 794.1 496.59 781.75 449.76 827.84 449.76 840.19 496.59"/><polygon class="cls-14" points="898.4 496.59 852.32 496.59 839.96 449.76 886.05 449.76 898.4 496.59"/><polygon class="cls-15" points="564.44 554.64 518.36 554.64 506 507.81 552.09 507.81 564.44 554.64"/><polygon class="cls-13" points="621.79 554.64 575.71 554.64 563.37 507.81 609.45 507.81 621.79 554.64"/><polygon class="cls-15" points="680.86 554.64 634.78 554.64 622.43 507.81 668.51 507.81 680.86 554.64"/><polygon class="cls-13" points="739.08 554.64 692.99 554.64 680.64 507.81 726.73 507.81 739.08 554.64"/><polygon class="cls-13" points="797.28 554.64 751.2 554.64 738.86 507.81 784.93 507.81 797.28 554.64"/><polygon class="cls-13" points="855.5 554.64 809.41 554.64 797.06 507.81 843.15 507.81 855.5 554.64"/><polygon class="cls-14" points="913.7 554.64 867.62 554.64 855.27 507.81 901.36 507.81 913.7 554.64"/><polygon class="cls-13" points="578.89 612.68 532.81 612.68 520.46 565.86 566.55 565.86 578.89 612.68"/><polygon class="cls-13" points="637.1 612.68 591.02 612.68 578.67 565.86 624.76 565.86 637.1 612.68"/><polygon class="cls-13" points="695.32 612.68 649.23 612.68 636.88 565.86 682.97 565.86 695.32 612.68"/><polygon class="cls-13" points="753.52 612.68 707.44 612.68 695.1 565.86 741.18 565.86 753.52 612.68"/><polygon class="cls-13" points="812.59 612.68 766.51 612.68 754.16 565.86 800.25 565.86 812.59 612.68"/><polygon class="cls-13" points="870.8 612.68 824.72 612.68 812.37 565.86 858.46 565.86 870.8 612.68"/><polygon class="cls-14" points="929.01 612.68 882.93 612.68 870.58 565.86 916.67 565.86 929.01 612.68"/><polygon class="cls-13" points="594.2 670.73 548.12 670.73 535.77 623.91 581.85 623.91 594.2 670.73"/><polygon class="cls-13" points="652.41 670.73 606.33 670.73 593.98 623.91 640.07 623.91 652.41 670.73"/><polygon class="cls-13" points="710.63 670.73 664.54 670.73 652.19 623.91 698.28 623.91 710.63 670.73"/><polygon class="cls-13" points="768.84 670.73 722.75 670.73 710.4 623.91 756.49 623.91 768.84 670.73"/><polygon class="cls-12" points="827.9 670.73 781.82 670.73 769.47 623.91 815.55 623.91 827.9 670.73"/><polygon class="cls-12" points="886.11 670.73 840.03 670.73 827.68 623.91 873.76 623.91 886.11 670.73"/><polygon class="cls-12" points="944.32 670.73 898.24 670.73 885.89 623.91 931.97 623.91 944.32 670.73"/><rect class="cls-5" x="750.31" y="451.59" width="2.16" height="40.85" transform="translate(-86.8 763.26) rotate(-51.3)"/><rect class="cls-5" x="735.65" y="470.93" width="31.48" height="2.16" transform="translate(-70.76 805.85) rotate(-54.24)"/><path class="cls-2" d="M987.14,349.21s-36.27,0-50.46-3.28a175.25,175.25,0,0,0-29.17-3.67s-7.51,3.26-10.21,3.46-8.06-4.06-8.06-4.06L879,344.35s-6.71,5.81-7.86,3.88c-.45-.75,4.12-4.57,4.85-5.21,1.46-1.27,7.13-3.24,7.82-4.45,1-1.71-9.12-.11-10.95,1.39a83.18,83.18,0,0,1-8.3,5.84s-3.06.61-2.76-.57,10.61-8.73,10.61-8.73l9-2-10.18-1.19s-8.06,3.11-8.24.6c0-.58,8.41-3.71,8.41-3.71l11.54-1.24s6.15-.12,8.49.1,12.32,3.41,12.32,3.41,23.12-2.08,32.43-2c13.58.13,39.13-.54,47.32,0S991,348.93,987.14,349.21Z"/><path class="cls-2" d="M883.82,324c-.17,1-.06,2.43.84,2.8,2.47,1,6.71,2.27-.6,3.83-2.71.58,16.14,2.45,16.14,2.45s-5.7-4.63-10.71-7.79C889.49,325.26,883.93,323.33,883.82,324Z"/><path class="cls-2" d="M861.63,338.06l7.87-5.81,12.35-.18.63,2.72s-11.12,1-11.71.86-6.46,3.23-7.59,3.61S861.1,338.68,861.63,338.06Z"/><path class="cls-1" d="M1007.66,157.13s-15.83,1.34-20.78-4.68,9.58-4.07,3,.28-21.19-3.47-17.28-10.79,10.06-10.45,16-6.17,1.08,6.71-1.16,2.53,6.8-14.36,14.4.15,3.5,15.62.9,6,3.49-15.67,8-4.38-2.44,16.86-4.17,11.8,13.06-15.68,14.19-6,2,21.16-5.28,21.3,9.77-25.1,16.46-4.45-6.79,14.35-7.31,9.71,24.65,4,5.12,10.77-12.18-1.5-13.83-6.21,16.44,7.7,6.64,17.72-19.16,8.13-17.2-2.34,13-5,9.47,3.7,1.9,13.84,4,14.75-13.47,7.32-16.48-1.07S995.22,160.13,1007.66,157.13Z"/><path class="cls-2" d="M983.9,149.57l-9,11.64.08,4.39-7.81,10.59,3.48,6.05L969,200.72s-1.36,9.94,8,6.31l9.33-3.63s7.86,24.79,2.43,29.21-9.28,9.43-7.07,12.17c2,2.5,7.34.67,12.81.07,9.75-1.08,16.22.76,20.39,1,3,.15-1.17-1.67-2-7.9s-6-42.66-6-42.66a5.5,5.5,0,0,0,4-.33c2.31-1,12.67-8.95,9.22-13.54s-11-2.55-13.5,1.81-7.07-.3-6-9.8,20.09-15.06-1.56-18C984.58,153.44,983.9,149.57,983.9,149.57Z"/><path class="cls-2" d="M904.66,253.06l-49.74-45.49s-3.31,4-2.06,7.65c3.41,9.9,17.24,24.69,25,33.08A160.26,160.26,0,0,0,902,269Z"/><path class="cls-2" d="M854.85,219.84l-6.28-5.34a28.36,28.36,0,0,1-5.69-6.39c-2.59-4-1.11-7.87,2.24-11.06S851,193.5,851,193.5s5.41,2.4,4.73,7.23,4.18,15.51,2.34,16.29A8.39,8.39,0,0,0,854.85,219.84Z"/><polygon class="cls-2" points="853.31 194.46 847.07 187.72 840.97 181.72 840.19 183.48 843.92 188.34 845.92 198.51 848.38 197.15 853.31 194.46"/><polygon class="cls-2" points="841.78 190.84 835.05 187.32 833.84 188.8 839.84 193.46 844.18 200.3 848.38 197.15 841.78 190.84"/><polygon class="cls-2" points="832.57 191.84 838.1 194.31 841.99 195.43 844.67 199.01 842.17 202.57 839.4 198.63 832.67 194.14 832.57 191.84"/><polygon class="cls-2" points="831.34 197.78 841.92 200.49 843.65 203.16 842.08 205.7 837.79 202.73 832.1 199.53 831.34 197.78"/><path class="cls-2" d="M861.18,219.71c-3.43-3.48-2.67-8.64-2.67-8.64s1.55-12.91-.34-15-3.08-7.65-3.08-7.65-1.62-2.06-2.31,3.16A21.76,21.76,0,0,0,853,198s-3.49,7.05-3.23,9.33c.53,4.71,9,13,9,13S861.62,220.15,861.18,219.71Z"/><path class="cls-3" d="M964.17,240.1l-23,5.56-21.68,4.1-53.76-36.1-12.44,21.46,62.1,50.38L988,276.13a152.32,152.32,0,0,0,17-39.26C1009,221.28,968.76,239.46,964.17,240.1Z"/><path class="cls-8" d="M988.18,699.66l.13,6.34,35.19-.75.46-17-21.23-.26S991.5,698.69,988.18,699.66Z"/><path class="cls-1" d="M1014.14,400.67s-16,104.67-34,150.83c-16,40.91-36.72-11.42-36.72-11.42l27-175.61,50.55-4.92S1024.47,360.76,1014.14,400.67Z"/><path class="cls-4" d="M981,368.75l-4.8,67.36,8.89,5s7.2,99.76,9,104.78c10.1,28.71,34.31,10.84,37.45,1.13s7.22-81.14,5-133.15l-2.22-52Z"/><path class="cls-4" d="M995.61,519s-3.69,17.88-2.39,51.51c.83,21.31,4.11,77.72,8.91,119.66.3,2.57,21.24.18,21.24.18s9.89-136.68,10.46-163.12C1034,519.29,1012,499.85,995.61,519Z"/><path class="cls-3" d="M988.83,229.6l2.6,2.49L1010.69,221l28,20.26s5.31,18.85,5.59,56.58-2.94,173.42-2.94,173.42l-72.06,5.86-7.61-51.56-5.28,46.29-8.79-7S967.06,246.64,988.83,229.6Z"/><path class="cls-1" d="M951.82,537.54s5.91,1.79,24.63,2.06-20.82,151.13-20.82,151.13L929,681.56l15.86-151.35Z"/><path class="cls-8" d="M953.54,689.13l-2.23,13.2-13.4.28-12.57.27-17.59.37-.1-4.83s20.78-7.69,24.8-15.82S953.54,689.13,953.54,689.13Z"/><polygon class="cls-10" points="998.54 231.01 988.83 229.6 978.84 241.89 977.44 277.88 987.99 259.14 1000.88 238.63 998.54 231.01"/><polygon class="cls-7" points="990.77 230.28 989.46 242.59 1016.28 227.53 1013.18 218.71 990.77 230.28"/><polygon class="cls-7" points="989.46 226.77 990.77 230.28 985.5 241.71 985.06 231.6 989.46 226.77"/><path class="cls-15" d="M1014.36,219.88l-24.61,27.54-12.31,30.46-12.3,56.25,28.71-72.06-2.93-2.35,4.69-2.93s9.37-13.47,17-20.5,7.61-8.21,7.61-8.21Z"/><path class="cls-15" d="M1029.4,239.81s14.56,7.49,7.57,29.11c-11.89,36.85-36.72,67.22-41.4,73.3s-20.29,18.71-31.9,15.93c-7.32-1.75-46.57-3.51-46.57-3.51l-1.76-26.37,43.92-.3,4.28-.8s15.09-23.95,27.7-47.27S1029.4,239.81,1029.4,239.81Z"/><path class="cls-15" d="M981.55,269.1s2.82-37.13,4.92-39.37-5.51,4.21-5.51,4.21l-2.12,7.95-2.57,9.63L971,311.28Z"/><rect class="cls-15" x="974.95" y="416.16" width="34.27" height="7.47"/></svg>