<svg id="Layer_1" data-name="Layer 1" xmlns="http://www.w3.org/2000/svg" xmlns:xlink="http://www.w3.org/1999/xlink" viewBox="0 0 1363 812"><defs><style>.cls-1{fill:#e9f6ff;}.cls-2{fill:#cee5ff;}.cls-3{fill:#8c8cf9;}.cls-4{fill:#acd4f8;}.cls-5{fill:#e2c59c;}.cls-6{fill:#7dc2f5;}.cls-7{fill:#161711;}.cls-8{fill:#e9d6b8;}.cls-9{fill:#163f59;}.cls-10{fill:#8dcfff;}.cls-11{fill:#194866;}.cls-12{fill:#e7f5fe;}.cls-13{fill:#d1dbea;}.cls-14{fill:#dbe7f3;}.cls-15{fill:url(#linear-gradient);}.cls-16{fill:#0253a2;}.cls-17{fill:#7676d6;}.cls-18{fill:#b0d5ff;}.cls-19{fill:#7eb3ff;}.cls-20{fill:#aebddc;}.cls-21{fill:#fff;}</style><linearGradient id="linear-gradient" x1="8011.85" y1="444.2" x2="8041.22" y2="452.8" gradientTransform="translate(-7143.63 0)" gradientUnits="userSpaceOnUse"><stop offset="0" stop-color="#d1dbea"/><stop offset="1" stop-color="#dbe7f3"/></linearGradient></defs><path class="cls-1" d="M863.08,675.82c-50.16-.71-207.49,27.92-298.73,4-147.86-38.73-318.82-4.83-224.84,32,26.27,10.29-49.06,72.49,136.11,86.09,162.54,11.93,328-14.76,408.17-26.24s117-31.62,134.15-40.71C1033,723,1038.38,678.34,863.08,675.82Z"/><path class="cls-2" d="M981,292.34c-16.41,0-29.27-34.37-29.27-78.23s12.86-78.24,29.27-78.24,29.29,34.37,29.29,78.24S997.41,292.34,981,292.34Zm0-152.91c-13.94,0-25.72,34.2-25.72,74.68s11.78,74.67,25.72,74.67,25.73-34.2,25.73-74.67S994.94,139.43,981,139.43Z"/><path class="cls-2" d="M1030,260.93c-16.55,0-40.33-8-63.62-21.46-38-21.94-61.31-50.26-53.11-64.48,2.92-5,9.41-7.71,18.78-7.71,16.55,0,40.33,8,63.62,21.47,38,21.93,61.31,50.26,53.11,64.48C1045.83,258.26,1039.34,260.93,1030,260.93Zm-98-90.09c-5.6,0-12.86,1-15.69,5.93-7,12.07,16.75,39.37,51.8,59.61,22.77,13.15,45.89,21,61.84,21,5.6,0,12.86-1,15.69-5.94,7-12.07-16.75-39.37-51.8-59.61C971.09,178.69,948,170.84,932,170.84Z"/><path class="cls-2" d="M932,260.93h0c-9.37,0-15.86-2.67-18.78-7.7-8.2-14.22,15.13-42.55,53.11-64.48,23.29-13.44,47.07-21.47,63.62-21.47,9.37,0,15.86,2.67,18.78,7.71,8.21,14.22-15.12,42.54-53.11,64.48C972.36,252.9,948.57,260.93,932,260.93Zm98-90.09c-16,0-39.07,7.85-61.84,21-35,20.24-58.77,47.54-51.8,59.61,2.83,4.9,10.09,5.94,15.69,5.94,16,0,39.07-7.85,61.84-21,35.05-20.24,58.77-47.54,51.8-59.61C1042.83,171.87,1035.57,170.84,1030,170.84Z"/><path class="cls-2" d="M996.05,214.11A15.06,15.06,0,1,1,981,199.05,15.05,15.05,0,0,1,996.05,214.11Z"/><path class="cls-2" d="M982.32,211.89a6.2,6.2,0,1,1-6.19-6.19A6.19,6.19,0,0,1,982.32,211.89Z"/><path class="cls-2" d="M944.59,167.88a9.63,9.63,0,1,1-9.62-9.64A9.62,9.62,0,0,1,944.59,167.88Z"/><path class="cls-2" d="M935.82,166.46a4,4,0,1,1-4-4A4,4,0,0,1,935.82,166.46Z"/><path class="cls-2" d="M1049.78,199.64a9.63,9.63,0,1,1-9.63-9.63A9.63,9.63,0,0,1,1049.78,199.64Z"/><path class="cls-2" d="M1041,198.22a4,4,0,1,1-4-4A4,4,0,0,1,1041,198.22Z"/><path class="cls-2" d="M975.52,273.47a9.62,9.62,0,1,1-9.61-9.62A9.62,9.62,0,0,1,975.52,273.47Z"/><path class="cls-2" d="M966.75,272.06a4,4,0,1,1-4-4A4,4,0,0,1,966.75,272.06Z"/><path class="cls-3" d="M841.65,109a27.58,27.58,0,0,0-11.1,3.88L806.68,87.79a61.71,61.71,0,0,1,37.73-13.43Z"/><path class="cls-1" d="M872.86,136a27.71,27.71,0,0,0-20-26.08l2.78-34.62c.38.07.78.09,1.17.16a62.08,62.08,0,0,1,50,67.08Z"/><path class="cls-3" d="M859.53,160a27.66,27.66,0,0,0,11.2-12.95l34,6.53a61.88,61.88,0,0,1-33.56,39.06Z"/><path class="cls-4" d="M822.34,120.64a27.35,27.35,0,0,0-4.46,10.55,27.44,27.44,0,0,0,31,32.61l11.65,32.69a62,62,0,0,1-62-100.93Z"/><rect class="cls-4" x="769.86" y="23.22" width="1.58" height="22.93"/><rect class="cls-4" x="766.71" y="23.22" width="1.58" height="22.93"/><polygon class="cls-4" points="551.29 58.3 550.51 56.94 569.97 45.7 569.97 23.22 571.55 23.22 571.55 46.61 551.29 58.3"/><polygon class="cls-4" points="630.86 58.53 610.6 46.84 611.39 45.47 630.86 56.71 650.33 45.47 651.11 46.84 630.86 58.53"/><polygon class="cls-4" points="670.84 58.53 650.58 46.84 651.37 45.47 670.84 56.71 689.91 45.7 689.91 23.67 670.44 12.43 671.23 11.07 691.49 22.76 691.49 46.61 670.84 58.53"/><polygon class="cls-4" points="710.81 58.53 690.16 46.61 690.16 22.76 710.42 11.07 711.21 12.43 691.74 23.67 691.74 45.7 710.81 56.71 730.28 45.47 731.07 46.84 710.81 58.53"/><polygon class="cls-4" points="490.87 92.85 470.61 81.16 471.4 79.79 490.87 91.03 509.94 80.02 509.94 58 490.47 46.76 491.26 45.39 511.52 57.09 511.52 80.93 490.87 92.85"/><path class="cls-4" d="M530.85,92.85,510.2,80.93V57.09l20.65-11.93L551.5,57.09V80.93ZM511.78,80l19.07,11,19.07-11V58L530.85,47,511.78,58Z"/><rect class="cls-4" x="512.28" y="53.3" width="19.9" height="1.58" transform="translate(42.89 268.28) rotate(-29.99)"/><rect class="cls-4" x="521.44" y="73.98" width="1.58" height="19.9" transform="translate(188.44 494.24) rotate(-60)"/><rect class="cls-4" x="547.29" y="59.06" width="1.58" height="19.9"/><rect class="cls-4" x="572.25" y="87.75" width="19.9" height="1.58" transform="translate(33.88 303.34) rotate(-30.04)"/><rect class="cls-4" x="581.41" y="108.44" width="1.58" height="19.9" transform="translate(188.55 563.37) rotate(-60)"/><rect class="cls-4" x="607.26" y="93.52" width="1.58" height="19.9"/><rect class="cls-4" x="672.19" y="53.56" width="19.9" height="1.58" transform="matrix(0.87, -0.5, 0.5, 0.87, 64.22, 348.35)"/><rect class="cls-4" x="681.35" y="74.24" width="1.58" height="19.9" transform="translate(268.14 632.83) rotate(-60)"/><rect class="cls-4" x="707.2" y="59.32" width="1.58" height="19.9"/><path class="cls-4" d="M570.83,92.85,550.17,80.93V57.09l20.66-11.93,20.65,11.93V80.93ZM551.75,80l19.08,11L589.9,80V58L570.83,47,551.75,58Z"/><polygon class="cls-4" points="610.8 92.85 590.15 80.93 590.15 57.54 591.73 57.54 591.73 80.02 610.8 91.03 629.88 80.02 629.88 58 610.41 46.76 611.2 45.39 631.46 57.09 631.46 80.93 610.8 92.85"/><path class="cls-4" d="M650.78,92.85,630.13,80.93V57.09l20.65-11.93,20.65,11.93V80.93ZM631.71,80l19.07,11,19.07-11V58L650.78,47,631.71,58Z"/><path class="cls-4" d="M690.76,92.85,670.11,80.93V57.09l20.65-11.93,20.65,11.93V80.93ZM671.69,80l19.07,11,19.07-11V58L690.76,47,671.69,58Z"/><path class="cls-4" d="M730.74,92.85,710.09,80.93V57.09l20.65-11.93,20.65,11.93V80.93ZM711.66,80l19.08,11,19.07-11V58L730.74,47,711.66,58Z"/><polygon class="cls-4" points="751.64 80.47 750.06 80.47 750.06 57.09 770.72 45.16 790.97 56.86 790.18 58.23 770.72 46.98 751.64 58 751.64 80.47"/><polygon class="cls-4" points="471.21 126.95 470.42 125.58 489.89 114.34 489.89 92.32 470.42 81.08 471.21 79.71 491.47 91.41 491.47 115.25 471.21 126.95"/><polygon class="cls-4" points="510.4 126.95 490.14 115.25 490.14 91.41 510.79 79.49 531.44 91.41 531.44 114.8 529.87 114.8 529.87 92.32 510.79 81.31 491.72 92.32 491.72 114.34 511.19 125.58 510.4 126.95"/><path class="cls-4" d="M550.77,127.18l-20.65-11.93V91.41l20.65-11.92,20.65,11.92v23.84ZM531.7,114.34l19.07,11,19.07-11v-22l-19.07-11-19.07,11Z"/><path class="cls-4" d="M590.75,127.18,570.1,115.25V91.41l20.65-11.92L611.4,91.41v23.84Zm-19.07-12.84,19.07,11,19.07-11v-22l-19.07-11-19.07,11Z"/><path class="cls-4" d="M630.73,127.18l-20.65-11.93V91.41l20.65-11.92,20.65,11.92v23.84Zm-19.08-12.84,19.08,11,19.07-11v-22l-19.07-11-19.08,11Z"/><path class="cls-4" d="M670.7,127.18l-20.65-11.93V91.41L670.7,79.49l20.65,11.92v23.84Zm-19.07-12.84,19.07,11,19.08-11v-22l-19.08-11-19.07,11Z"/><polygon class="cls-4" points="710.29 126.95 690.03 115.25 690.03 91.41 710.68 79.49 731.33 91.41 731.33 114.8 729.76 114.8 729.76 92.32 710.68 81.31 691.61 92.32 691.61 114.34 711.08 125.58 710.29 126.95"/><polygon class="cls-4" points="731.59 114.8 730.01 114.8 730.01 91.41 750.26 79.71 751.05 81.08 731.59 92.32 731.59 114.8"/><polygon class="cls-4" points="510.21 126.87 490.74 115.63 471.27 126.87 470.48 125.5 490.74 113.81 511 125.5 510.21 126.87"/><polygon class="cls-4" points="530.72 161.5 510.46 149.81 511.25 148.44 530.72 159.68 549.79 148.67 549.79 126.64 530.32 115.41 531.11 114.04 551.37 125.73 551.37 149.58 530.72 161.5"/><path class="cls-4" d="M570.7,161.5,550,149.58V125.73l20.66-11.92,20.65,11.92v23.85Zm-19.08-12.83,19.08,11,19.07-11v-22l-19.07-11-19.08,11Z"/><polygon class="cls-4" points="631.32 149.12 629.74 149.12 629.74 126.64 610.67 115.63 591.6 126.64 591.6 149.12 590.02 149.12 590.02 125.73 610.67 113.81 631.32 125.73 631.32 149.12"/><path class="cls-4" d="M650.65,161.5,630,149.58V125.73l20.65-11.92,20.65,11.92v23.85Zm-19.07-12.83,19.07,11,19.07-11v-22l-19.07-11-19.07,11Z"/><polygon class="cls-4" points="711.28 149.12 709.7 149.12 709.7 126.64 690.63 115.63 671.55 126.64 671.55 149.12 669.98 149.12 669.98 125.73 690.63 113.81 711.28 125.73 711.28 149.12"/><polygon class="cls-4" points="531.57 183.45 529.99 183.45 529.99 160.06 550.64 148.13 570.89 159.83 570.11 161.19 550.64 149.96 531.57 160.97 531.57 183.45"/><path class="cls-4" d="M476.88,47.82a4.57,4.57,0,0,1-1.93.35,3.41,3.41,0,0,1-3.61-3.7,3.63,3.63,0,0,1,3.81-3.83,3.94,3.94,0,0,1,1.74.32l-.23.77a3.5,3.5,0,0,0-1.47-.3,2.71,2.71,0,0,0-2.85,3,2.66,2.66,0,0,0,2.8,2.94,3.67,3.67,0,0,0,1.54-.31Z"/><path class="cls-4" d="M479,40.76v3.05h3.53V40.76h1v7.3h-1V44.64H479v3.42h-.95v-7.3Z"/><path class="cls-4" d="M569.46,18.89a4.57,4.57,0,0,1-1.93.35,3.41,3.41,0,0,1-3.61-3.7,3.63,3.63,0,0,1,3.82-3.83,3.92,3.92,0,0,1,1.73.32l-.23.77a3.43,3.43,0,0,0-1.47-.3,2.71,2.71,0,0,0-2.85,3,2.66,2.66,0,0,0,2.81,2.94,3.62,3.62,0,0,0,1.53-.31Z"/><path class="cls-4" d="M571.58,11.83v3.05h3.53V11.83h.95v7.3h-.95V15.71h-3.53v3.42h-1v-7.3Z"/><path class="cls-4" d="M577.15,20.71v-.34l.44-.43c1-1,1.52-1.52,1.52-2.14a.73.73,0,0,0-.81-.8,1.39,1.39,0,0,0-.87.35l-.18-.39a1.76,1.76,0,0,1,1.16-.42,1.15,1.15,0,0,1,1.26,1.19c0,.76-.55,1.37-1.41,2.2l-.33.3v0h1.84v.46Z"/><path class="cls-4" d="M531.06,196.69a4.74,4.74,0,0,1-1.93.35,3.42,3.42,0,0,1-3.61-3.7,3.63,3.63,0,0,1,3.82-3.83,3.92,3.92,0,0,1,1.73.32l-.23.77a3.43,3.43,0,0,0-1.47-.3,2.71,2.71,0,0,0-2.85,3,2.66,2.66,0,0,0,2.81,2.94,3.62,3.62,0,0,0,1.53-.31Z"/><path class="cls-4" d="M532.2,189.23h1v7.7h-1Z"/><path class="cls-4" d="M772.59,15.93c0,2.51-1.52,3.85-3.39,3.85s-3.28-1.5-3.28-3.71,1.44-3.83,3.39-3.83S772.59,13.76,772.59,15.93Zm-5.66.12c0,1.56.84,3,2.33,3s2.34-1.38,2.34-3c0-1.46-.76-3-2.33-3S766.93,14.45,766.93,16.05Z"/><path class="cls-4" d="M459.61,128c0,2.51-1.53,3.84-3.4,3.84s-3.28-1.49-3.28-3.7,1.44-3.84,3.39-3.84S459.61,125.81,459.61,128Zm-5.67.11c0,1.56.84,3,2.33,3s2.34-1.37,2.34-3c0-1.45-.76-3-2.33-3S453.94,126.49,453.94,128.09Z"/><path class="cls-4" d="M461.76,124.4v3h3.54v-3h.95v7.3h-.95v-3.42h-3.54v3.42h-.94v-7.3Z"/><polygon class="cls-3" points="601.54 141.3 532.18 141.3 532.18 366.72 688.23 488.08 844.29 366.72 844.29 141.3 774.94 141.3 774.94 175.98 722.92 175.98 722.92 123.96 653.55 123.96 653.55 175.98 601.54 175.98 601.54 141.3"/><polygon class="cls-3" points="774.94 175.98 722.92 175.98 722.92 123.96 686.55 123.96 686.55 486.78 688.23 488.08 844.29 366.72 844.29 141.3 774.94 141.3 774.94 175.98"/><path class="cls-5" d="M466.45,449.2,460,532a273.19,273.19,0,0,1-11.89-47.75,162.73,162.73,0,0,1-1.85-23.09C446.25,427.89,465.62,446.09,466.45,449.2Z"/><path class="cls-6" d="M460,402.21a59,59,0,0,0-15.18,32.65c-2.46,20.25-1.45,13.55-1.45,13.55s3.61,8,17.35,4.77S460,402.21,460,402.21Z"/><path class="cls-7" d="M457.6,721.15c.76-.93.21-3.36.21-3.36s-13.34-1.49-17.63-.47a21.71,21.71,0,0,0-4.77,2.24c-.3.17-.83,1.19-1.12,1.36-.54.32-.82-.22-1.27.07a15.31,15.31,0,0,0-2,1.41c-1.17,6.12.38,8.59.38,8.59s11,3.41,13.48,1.14C451.21,726.38,455.93,723.17,457.6,721.15Z"/><path class="cls-7" d="M499.79,726.19l1.91,9.94h10.13s.56-1.41,1.41-1.41,1.66,1.41,2.64,1.41h25.77s.46-2.09-.1-2.81a9.82,9.82,0,0,0-3.11-1.33c-5.23-1.47-20.21-6.06-22.81-11.06C512.45,714.84,499.79,726.19,499.79,726.19Z"/><path class="cls-8" d="M507.84,391.28l2.43-12s8.55.65,10.21-3.95c3.36-9.24.55-24-1.47-28.13-5.77-11.77-8.21-32.39-35.17-16-10.26,6.24,5.58,36.48,6.76,43s-2.33,14.08-2.33,14.08l6.31,4.74Z"/><path class="cls-9" d="M476,583.46s4,1.73-7.67,56.92c-8.39,39.74-15.55,68.82-18.9,82-1.3,5.11-2.75,4.19-2.75,4.19l-11.09,1.23-5.27-4.57,15.83-90.06Z"/><path class="cls-9" d="M501.89,521.65s-25.37,105.09-45.29,152.2c-11.68,27.59-11.78-25.38-11.78-25.38L463,495.87l53-2.57S509.92,495.16,501.89,521.65Z"/><path class="cls-9" d="M483.41,493.6s19.18,136.06,21.2,142.2c6.82,20.77,17.33-6.46,19.74-13.38s6.42-58.18,5.62-95.58l-.8-37.39Z"/><path class="cls-9" d="M502.68,601.77s-2.9,16.22-5.31,37c-1.77,15.22-1.82,58.7,1,88.91.17,1.84,19.37-3.78,19.37-3.78s7-84.54,8.62-103.46S514.72,588.25,502.68,601.77Z"/><path class="cls-10" d="M459.08,403.1l22.65-10.27,6.25-5.91,24.07-.58,4.22,6.94,18.66,8.09s4.61,7.24.6,34.11c-4.43,29.78-5.38,74.79-5.38,74.79l-70.56,3.41S446.54,432.48,459.08,403.1Z"/><path class="cls-11" d="M511.4,350.62s-3-1.88-3.51.46,1.17,7.51,2.57,8,1.87,6.79,1.87,6.79l-3.74,7h-19s-5.86-2.58-6.34-6.8-5.15-34-5.15-34l13.36-7a87.25,87.25,0,0,1,12-4.93c7.55-2.16,9.14,1.87,8.9,4s2.12,2.35,5.16,2.35,6.8,2.34,5.16,3.75c-.68.58,2.35,2.43,1.15,4.67-1.72,3.2-7.47,4.24-7.95,9.4C515.65,346.63,514.68,354.36,511.4,350.62Z"/><polyline class="cls-8" points="920.31 527.36 929.34 522.33 930.41 521.21 929.15 519.2 927.16 519.44 927.52 513.56 918.06 511.88 913.21 509.61 917.69 525.56"/><path class="cls-8" d="M946.05,469.15,913.39,508.9s1.18,5.79,3.8,2.72c.32-.37-1.26-1.54.73-2.63,8-4.38,26.86-11.12,33.85-17.86a116,116,0,0,0,15.69-19.29Z"/><path class="cls-8" d="M803.25,402.48s-15.1-2.9-33.64-25c-6.27-7.47-3.19.63-2.14,10s18.08,24.37,37.2,29.57S803.25,402.48,803.25,402.48Z"/><path class="cls-8" d="M771.1,383.28s3-10,1.43-12.56-7.72-11.28-7.72-11.28L763,357.35s-3.22.84,1,6.68.72,4.21.72,4.21l-5.71-3.73-7.31-4-3-2.21s-1.63-1.39-2.28-1.37c-1.89.07-1.14,1.59-1.14,1.59l11.13,9.69-12.52-5.93s-1.72-.48-2.26.34,0,1.05,0,1.05L754.32,374l-6.78-2.28s-1.69-.41-2.26.35a12.57,12.57,0,0,1-.8,1l25,12.67Z"/><rect class="cls-12" x="766.32" y="383.42" width="12.89" height="10.38" transform="translate(-79.41 536.85) rotate(-36.57)"/><rect class="cls-12" x="922.45" y="492.29" width="12.89" height="11.7" transform="translate(-68.71 838.37) rotate(-47.04)"/><path class="cls-8" d="M754.64,370.22l-9-3.62a7.47,7.47,0,0,0-3.12-.94,1.35,1.35,0,0,0-1.29,1.41l13.12,6.9Z"/><path class="cls-9" d="M918.41,728.42c-.61.82-.15,3-.15,3s10.83,1.37,14.31.47a17.59,17.59,0,0,0,3.87-2c.25-.16.67-1.07.9-1.22.44-.28.67.2,1-.06a11.59,11.59,0,0,0,1.65-1.25c.93-5.44-.34-7.64-.34-7.64s-9.23-3.4-11-1.06C924.69,724.18,919.76,726.62,918.41,728.42Z"/><path class="cls-9" d="M861.36,721.35l-1.61,8.81h-4.22s-.48-1.25-1.2-1.25-1.4,1.25-2.23,1.25H830.31s-.38-1.86.09-2.5a8.53,8.53,0,0,1,2.63-1.18c4.43-1.3,17.09-5.38,19.29-9.81C855,711.28,861.36,721.35,861.36,721.35Z"/><path class="cls-13" d="M878.46,384s1.64,7.88-27,39.73c-16,17.8-25.62,29.28-35.82,26.51C798.14,445.43,764,400,764,400l15.05-17.91s27.16,28.79,38.68,27.94c2.69-.2,19.34-15,34.78-36.46C859.08,364.56,876.52,381.79,878.46,384Z"/><path class="cls-9" d="M853,721.39s4.88,7.06,8.47.45c8.26-15.24,20.56-52.9,21-70,.6-24.56-3.57-41.66-3.57-41.66l-26.19-8.54Z"/><path class="cls-9" d="M853.9,489,852.71,601.6l23.81,13.14a162.28,162.28,0,0,0,16.07-61.17c.75-14.56,1.13-47.22-7-58.33C874.54,480.19,853.9,489,853.9,489Z"/><path class="cls-11" d="M862.59,489l3.89,39,10.58,42.29,11.26,39.51,40.21,109.7,11.7.94s-1.47-82.33-15.75-106.35c-7.56-12.7-7.55-40.9-11-71.27-.63-5.47,2.46-17.82,2-22.81a81.34,81.34,0,0,0-12.11-34.42Z"/><path class="cls-14" d="M850,563.61l9.32-1.43.71-24.36,9.32,23.64,47.75-7.64s1-50.62-6.21-75l16.21-63s14.29-44.6-13.09-45.17-58.92-.56-58.92-.56S829,484.58,850,563.61Z"/><path class="cls-3" d="M880.81,380.51S864,425.3,878.36,469.32c1.13,3.47,5.79,5.3,5.79,5.3l5-6.06S880,417.52,880.81,380.51Z"/><polygon class="cls-13" points="881.66 379.34 883.7 388.48 899.38 373.63 899.38 371.34 881.66 379.34"/><polygon class="cls-13" points="878.3 370.67 874 387.87 879.73 380.7 878.3 370.67"/><path class="cls-14" d="M924.62,414.5l17.94,51.66L922.71,495s9.12,12,12.54,10.39c23.64-11.47,40.87-47.25,40.87-47.25L950.29,388s-10-14.73-32.24-17.18C901.93,369,923.33,410.21,924.62,414.5Z"/><path class="cls-8" d="M901.32,360.29a58.57,58.57,0,0,1-2.78,9.79c-1.79,4-17.26,9.14-19.64,9.71s.6-12,.6-14.86c0-2.18,1.4-1.5-.29-4.64Z"/><path class="cls-8" d="M874.88,353.92a4.49,4.49,0,0,0,3.71,5.15l20,3.2a4.48,4.48,0,0,0,5.14-3.72L908.44,329a4.5,4.5,0,0,0-3.72-5.15l-20-3.19a4.48,4.48,0,0,0-5.14,3.72Z"/><path class="cls-9" d="M878.61,330.45s-2.22-3.29-2.43-5.13a6.7,6.7,0,0,1,3.72-5.09c2.43-.93,3.89,1.76,3.89,1.76s-3.86,1.4-4.16,2.11S878.61,330.45,878.61,330.45Z"/><path class="cls-11" d="M908.35,342.61s4.83-10.88,4.81-14.29,0-5.79-4-6.81c-6-1.53-6.28-.25-8.94-2.58s-7.26-7.62-9-8.36c-2.93-1.23-7.86-1-9,4.73a6.43,6.43,0,0,1-3.6,5c.15.55,1.19,1.22,3,2.49,5.1,3.67,8.33,4.76,12.76,4.33s12.73-1.57,13.15,1.73-1.49,12.84-1.25,13.64S907.51,343.05,908.35,342.61Z"/><path class="cls-8" d="M900.63,350.48a1.5,1.5,0,0,0,1.25,1.71l4.31.69a1.51,1.51,0,0,0,1.72-1.24l1.26-7.88a1.5,1.5,0,0,0-1.24-1.72l-4.31-.69a1.49,1.49,0,0,0-1.71,1.24Z"/><path class="cls-8" d="M874.93,346.34a1.48,1.48,0,0,0,1.23,1.72l4.31.69a1.49,1.49,0,0,0,1.72-1.24l1.26-7.88a1.5,1.5,0,0,0-1.24-1.72l-4.31-.69a1.5,1.5,0,0,0-1.71,1.25Z"/><path class="cls-11" d="M906,344.9s-1.87,11.63-2.49,15.51c-.56,3.51-3.2,11-23,7.8-11.73-1.87-9.92-10.43-9.46-13.26.34-2.16,3.82-8.23,5.26-9.27,0,0-.77,4.81-.77,4.81a9.47,9.47,0,0,1,8.76-3.39c9,1.44,10.2,7,14.18,7.58C901.55,355.09,904.63,350.49,906,344.9Z"/><path class="cls-8" d="M886.78,355.33l-6.16-1a1.5,1.5,0,0,1-1.24-1.72l.14-.86,9.11,1.46-.14.86A1.5,1.5,0,0,1,886.78,355.33Z"/><polygon class="cls-12" points="878.66 369.6 874.72 382.85 871.49 432.99 860.75 394.31 867.44 387.15 863.26 381.06 871.14 370.31 878.66 369.6"/><path class="cls-15" d="M858.6,508.21l9.31,23.64,48,8.6s2.15-37.25-5-61.61l16.21-63s14.29-44.6-13.09-45.17c-3.85-.08-7.79-.14-11.71-.2-5.54-.08-15,16.32-17.19,21-2.39,5-17.2,50.14-17.2,50.14Z"/><polygon class="cls-13" points="900.39 369.48 910.89 369.48 903.01 384.96 892.99 391.7 893.7 403.43 868.87 443.38 883.67 391.7 900.39 369.48"/><polygon class="cls-12" points="900.39 369.48 910.89 369.48 903.01 384.28 892.99 390.73 893.7 401.95 868.87 440.16 883.67 390.73 900.39 369.48"/><polygon class="cls-3" points="878.9 379.79 881.66 379.34 881.76 386.19 879.85 388.1 876.99 387.15 878.9 379.79"/><path class="cls-12" d="M875.34,511.46l24.53-.45,6,27.26-16.28.91s-8.61.52-10.4-6.73S875.34,511.46,875.34,511.46Z"/><path class="cls-12" d="M844,535.77l6,.38.36-22.21-8.53-.43C842.24,520.84,843,528.28,844,535.77Z"/><path class="cls-13" d="M864.44,451.71s-8.59,25.13-6.44,63.66c0,0,5.1-26.6,7-34.38,6.44-25.79,13.61-30.8,23-41.84C899.92,425.23,873,428.26,864.44,451.71Z"/><path class="cls-8" d="M574.49,464.08s4,.54,1.75,21.69-10.19,51.72-10.19,51.72l.92-49.23S568.15,469.45,574.49,464.08Z"/><path class="cls-8" d="M569.2,521c-.77,10.09,3.5,14.73,4.62,18.83a73.57,73.57,0,0,0,3,8.24c-3.75-2.53-3.62-5.79-4.77-7.51s-.54-1.25-1,2.32c-.3,2,2.7,5.85,4.32,8.57a8.49,8.49,0,0,1,1.42,3.75,40.56,40.56,0,0,1-5.52-6.36,51.4,51.4,0,0,1-5.56-10.6c-.61-2.2-.3-9,.64-13.73C567.33,519.14,569.75,513.73,569.2,521Z"/><polygon class="cls-8" points="576.28 717.78 575.05 745.48 557.62 746.86 549.88 745.91 565.26 741.07 566.97 718.02 576.28 717.78"/><path class="cls-16" d="M573.71,749l-3.8.49-.65-1.07-14.43.2-7-1.83s-.28-1.23.37-1.6c2-1.12,9.44-1.72,9.44-1.72s-1,1.39-.21,2,10.39.28,12.77-.11c4.1-.69,5.4-1.9,5.53-1.57C576.07,744.71,573.71,749,573.71,749Z"/><path class="cls-11" d="M571,516.77l-2.36,104.82-7.14,102.87,15.72,1.23s14.68-103.64,16.42-112.61S614,532.21,605.3,513.85,571,516.77,571,516.77Z"/><path class="cls-8" d="M632.49,458.46c8.77,10.59,13.2,54.16,13.2,54.16s-2.88,16.67-19-39.27C621.82,456.56,630.32,455.85,632.49,458.46Z"/><path class="cls-8" d="M642,550.23l3.66-4,2-4,.56-7.19s-.36-7.69-1.54-10.54-.92-14.24-1.35-15.64-7.59-3.1-7.59-3.1,3.15,11.8,4,16.58-.29,12,0,13.92a21.67,21.67,0,0,0,1.68,5.75s.2-5.1.1-6.45,1.45-.75,1.45-.75.47,7.05-.18,8.93a11.73,11.73,0,0,1-1.88,3.32Z"/><path class="cls-3" d="M585.66,434.08,580,493.15v3.44l-16.91-1s4.9-45.59,5.64-47.8,2.45-21.33,2.2-24.75.49-20.6,11.77-18.88S585.66,434.08,585.66,434.08Z"/><path class="cls-3" d="M622.21,434.08l5.63,59.07v3.44l16.92-1c-7.62-34.56-9.33-41.43-9.56-47.8-.08-2.32-.49-21.33-.25-24.75s.48-12.75-9.8-18.88C615.35,398.33,622.21,434.08,622.21,434.08Z"/><path class="cls-8" d="M604,714.59l.25,35.55L618.94,745s6.21-4.5.85-3.92c-7.85.86-6.25-2.45-6.49-8.82s1-18.63,1-18.63Z"/><path class="cls-16" d="M620.9,741.06a27.29,27.29,0,0,1-3.44,2.7c-1.71,1.1-6.65,3.54-8.57,3.92a18.05,18.05,0,0,1-4.78.25s-1.11,3.67,1.34,3.43,14.72-5.64,16.43-6.86S623.84,741.31,620.9,741.06Z"/><path class="cls-11" d="M607.25,518.74l-1.87,96.13-1.72,101.92,12.41-.65s12.53-102.6,13.59-111.67,16.08-69.41,6-87S607.25,518.74,607.25,518.74Z"/><path class="cls-17" d="M604.8,399.6s-19.28,1.3-23.86,3.27-3.59,24.52-.66,41.18,1.64,35.3-2.61,45.76-7.51,30.39-7.51,30.39l67.65-1s-15.36-41.51-15.36-57.53,4.25-52.62,3.92-56.21S609.05,399.6,604.8,399.6Z"/><path class="cls-16" d="M575.81,393.11a.47.47,0,0,1-.06-.09c4.21-5.07,6.62-10.75,6.62-19.09,0-3.53-.3-4.82-.44-10.07,0,0,0,0,0,0,0-.49-.11-1-.11-1.49V356a16.94,16.94,0,0,1,16.94-16.94H603A16.94,16.94,0,0,1,620,356v12.51l.06,0c0,.4,0,.79-.06,1.18v.69a30.56,30.56,0,0,0,12.75,24.35A16,16,0,0,1,628.17,425a23.72,23.72,0,0,1-42.87,3.53,23,23,0,0,1-14.49-21.26A22.6,22.6,0,0,1,575.81,393.11Z"/><rect class="cls-18" x="412.91" y="175.34" width="12.08" height="15.57" rx="0.21"/><rect class="cls-18" x="429.37" y="158.53" width="12.08" height="32.38" rx="0.21"/><path class="cls-18" d="M457.92,190.8c0,.06-.09.11-.21.11H446.05c-.12,0-.21,0-.21-.11V164.28c0-.06.09-.11.21-.11h11.66c.12,0,.21.05.21.11Z"/><rect class="cls-18" x="462.24" y="175.34" width="12.08" height="15.57" rx="0.21"/><path class="cls-18" d="M490.79,190.6c0,.17-.09.31-.21.31H478.92c-.12,0-.21-.14-.21-.31V142c0-.17.09-.31.21-.31h11.66c.12,0,.21.14.21.31Z"/><path class="cls-18" d="M507.25,190.8c0,.06-.09.11-.2.11H495.38c-.11,0-.2,0-.2-.11V164.28c0-.06.09-.11.2-.11h11.67c.11,0,.2.05.2.11Z"/><path class="cls-19" d="M1031.46,74.72a6.2,6.2,0,0,1,.24,8.76h0a6.2,6.2,0,0,1-8.76.24l-12.46-11.79a6.19,6.19,0,0,1-.25-8.76h0a6.2,6.2,0,0,1,8.76-.24Z"/><path class="cls-3" d="M1016.64,77.76l6.3,6a6.2,6.2,0,1,0,8.52-9l-6.3-6Z"/><path class="cls-4" d="M949.66,88.71a9,9,0,0,1-12.68.35h0a9,9,0,0,1-.35-12.67l17.06-18A9,9,0,0,1,966.36,58h0a9,9,0,0,1,.35,12.67Z"/><path class="cls-3" d="M945.25,67.27l-8.62,9.12a9,9,0,0,0,13,12.32l8.62-9.12Z"/><path class="cls-4" d="M893.83,82.9a11.93,11.93,0,1,1-11.59,12.26A11.92,11.92,0,0,1,893.83,82.9Z"/><path class="cls-3" d="M906.09,94.49a11.93,11.93,0,1,0-23.85.67Z"/><path class="cls-3" d="M906,96.38q.06-.45.09-.93l-23.75.67c0,.31.08.61.14.92Z"/><path class="cls-3" d="M934.5,131.77a8.54,8.54,0,1,1-.34-12.07A8.54,8.54,0,0,1,934.5,131.77Z"/><path class="cls-19" d="M922.43,132.1a8.53,8.53,0,1,0,11.73-12.4Z"/><path class="cls-4" d="M921.53,131.09c.14.17.28.35.43.51l11.68-12.35c-.17-.14-.36-.27-.54-.39Z"/><path class="cls-5" d="M697.23,597.5s-3.08-9.44-3.3-10.86-9.59-4.8-6.56-10.9c1.65-3.31,11.11-19.42,18.72-18.72,6.65.61,17.46,4.05,16.62,12.72s-9.29,13-12.34,15.63c-2.16,1.89-2.73,13.7,1.07,16C713,602.38,697.23,597.5,697.23,597.5Z"/><path class="cls-9" d="M702.35,568.79c.11.93-3.48,11.31-1.6,14.44,3.2,5.35,5.22,7,8,7.49,3.21.54,9.18-2.69,11.88-4.13s.86-1.51,4.67-2.69c8.64-2.7,6.49-14.74,5.59-16.71s-4.15-4.5-7.21-3.24S699.68,546.85,702.35,568.79Z"/><path class="cls-9" d="M717.86,571.46s-1.06,17.16,3.89,13,8.74-3,9.28-7.16,2.52-5.55.87-6,2.84-9.26-1.25-14.88-2.23-2.72-3.09-1.46c-1,1.45-3.69-3.77-5.07-6-1.78-2.92-12.91-5.71-12.13-1.06s-3.56-2-4.62.44-3.34-.63-3.65-2.86-6.47,6.05-2.24,15.92S715,571.72,717.86,571.46Z"/><path class="cls-9" d="M705,572.53s-4.28-2.14-5.35.54l-1.07,2.67-1.07-3.21s7-9.63,7-12.3S705.56,570.39,705,572.53Z"/><path class="cls-5" d="M735.54,636.2s4.13,11.14,5.57,15.64,3.06,6.82,4.67,8.44-.36,2.7-.72,4.31a34.79,34.79,0,0,1-1.08,3.6,12.8,12.8,0,0,0-1.61-3.6c-.9-1.07-3.42-1.43-3.78-3.59a30.23,30.23,0,0,0-3.77-10.78c-2.69-4.67-7.91-10.06-6.11-13.3S735.54,636.2,735.54,636.2Z"/><path class="cls-8" d="M688.42,704s-.68,10.37,0,14.82,2.42,19.54,3,22.64,9,2.83,8-1.08.54-10.51,1.21-15.9,1.49-16.44-.13-21.29S688.42,704,688.42,704Z"/><path class="cls-8" d="M709.09,702.33l12.07-.27a39.17,39.17,0,0,1-.86,8.36c-1,5.25-4.45,17.52-4.6,22.1s3.59,9.16,0,7.81-6.61,1.76-6.18.14.29-14-.58-19.68S707.94,704.76,709.09,702.33Z"/><polygon class="cls-3" points="682.89 670.7 683.43 699.46 682.53 705.74 703.02 706.28 704.99 686.34 706.25 678.43 714.88 671.96 682.89 670.7"/><polygon class="cls-17" points="682.53 702.51 703.2 703.41 703.02 706.28 682.71 706.46 682.53 702.51"/><path class="cls-17" d="M712.88,671.88l-30-1.18v.51c.91,3,2.86,8.57,5.2,9.74,3.24,1.61,5.75,0,7.91,5.75s2.51,12.4,4.67,7.72c1.86-4,1.32-9.14,5.19-13.58l.38-2.41,6-4.46A7.6,7.6,0,0,0,712.88,671.88Z"/><path class="cls-17" d="M691.48,675.8c5.33.8,9.48,0,13,2.85a19.08,19.08,0,0,1,1.82,1.72l.19-1.32,6-4.82a8.37,8.37,0,0,0,.69-2.25l-30.35-1.28,0,.26C684.4,672.45,687.63,675.21,691.48,675.8Z"/><path class="cls-3" d="M723.32,672l1.8,30.19H705.89l-1.62-18.33s4.67-11.68,5.39-11.68Z"/><polygon class="cls-17" points="705.53 700.53 725.48 700.89 725.3 703.23 705.71 703.41 705.53 700.53"/><path class="cls-17" d="M714,679.15c2.45-.91,7.13-2.55,9.57-3.4l-.23-3.79-13.66.18c-.72,0-5.39,11.68-5.39,11.68l.12,1.3c1,5.5,2.76,11.34,2.76,10.74a49.07,49.07,0,0,1,2.51-8.08c.9-2,1.44-3.24-1.07-2.88S710.56,680.41,714,679.15Z"/><path class="cls-5" d="M644.62,536.65s4.85,4.86,5.39,6.83,7.9,18.51,8.08,19.59,4.14,6.11,5.57,8.8,6.83,7.73,11.86,11.14.9,9,.9,9-17.43-11.5-21-16.53-7.73-22.64-8.09-24.44-3,0-3.77-2.34-1.8-6.82-1.8-6.82S643.54,537.19,644.62,536.65Z"/><path class="cls-13" d="M692.41,593.08s-17.79-12.4-18.5-13.84S668,587,667.08,590.56s-2,8.45.54,9.7,17.25,9.17,19.76,13.84S692.41,593.08,692.41,593.08Z"/><path class="cls-13" d="M717,598.47c.27-1.06,6.65.9,11.14,7.72s8.63,30.91,8.63,30.91-2.16,2.88-4.31,3.24-9.35-1.44-11.68-.54S716.85,599.19,717,598.47Z"/><path class="cls-20" d="M708.41,595.59S693,592,691,591.46s-7,14.73-6.83,27.31,2,19.23-1.26,30-1.44,23.54-1.44,23.54,18.15,4.49,31.81,2.7,13.48-.9,14.55-.9-7.36-26.78-5.75-46.9-1.43-28.21-4.85-29.47A60.76,60.76,0,0,0,708.41,595.59Z"/><path class="cls-13" d="M692.59,739.26s5.93-3.91,7.82-1.22a16.79,16.79,0,0,1,2.43,6.2s-3,7-4.05,7.82-9.57,2-9.57,2-4.71-5.93-3.5-7.41a4,4,0,0,1,3.24-1.62C689.63,745.05,691.78,739.93,692.59,739.26Z"/><path class="cls-20" d="M695.42,744.51c-.8,1.62-5.39,8.22-6.2,8.09-.61-.1-3.23-4.18-3.21-6.24a2.87,2.87,0,0,0-.29.31c-1.21,1.48,3.5,7.41,3.5,7.41s8.49-1.21,9.57-2,4.05-7.82,4.05-7.82C701.08,738.85,696.23,742.9,695.42,744.51Z"/><path class="cls-20" d="M709.71,741.68s2.29-3.37,4.18-3.1c2.11.3,3.37.68,3.91,2.83a10.93,10.93,0,0,1,0,4.45l-8.63.14s-2-4-1.48-5.67,1.88-2.15,2-1.75A24.42,24.42,0,0,1,709.71,741.68Z"/><path class="cls-13" d="M713.89,738.58c-1.26-.18-3.78,2.29-3.51,4.32a2.27,2.27,0,0,0,2.16,2.15h5.39a10,10,0,0,0-.13-3.64C717.26,739.26,716,738.88,713.89,738.58Z"/><path class="cls-5" d="M546.19,438s12.63,33.72,15,41.09c.71,2.22-9.38,9.74-12.1,7.69s-27.77-35-27.92-46.6S546.19,438,546.19,438Z"/><path class="cls-6" d="M523.91,396.59s19,7.28,21.83,27.33L548.62,444s-22.49,7.16-25.65,6.23S504.43,400.24,523.91,396.59Z"/><path class="cls-5" d="M550,487.27l60.85-3a10.4,10.4,0,0,0,5.7-2.25c3.14-2.29,8-8.08,8-8.08l.74-8.37s-2,1.12-2.32,2.62-4.2,2.51-5.75,3.19-4,.35-1.94-.77,6-3.74,6-5.35-5.59,2-5.59,2-6.92,2.08-8.58,3-8.49,8.53-8.82,9.36-41-13.26-43.24-13.19S547.49,486.29,550,487.27Z"/><polygon class="cls-21" points="739.96 273.74 704.63 273.74 704.63 238.13 671.51 238.13 671.51 273.74 636.18 273.74 636.18 307.14 671.51 307.14 671.51 342.75 704.63 342.75 704.63 307.14 739.96 307.14 739.96 273.74"/><polygon class="cls-1" points="704.63 238.13 687.35 238.13 687.35 342.75 704.63 342.75 704.63 307.14 739.96 307.14 739.96 273.74 704.63 273.74 704.63 238.13"/></svg>