<?xml version="1.0" encoding="utf-8"?>
<!-- Generator: Adobe Illustrator 25.2.0, SVG Export Plug-In . SVG Version: 6.00 Build 0)  -->
<svg version="1.1" id="Layer_1" xmlns="http://www.w3.org/2000/svg" xmlns:xlink="http://www.w3.org/1999/xlink" x="0px" y="0px"
	 viewBox="0 0 700 933" style="enable-background:new 0 0 700 933;" xml:space="preserve">
<style type="text/css">
	.st0{fill-rule:evenodd;clip-rule:evenodd;fill:#008D69;}
	.st1{fill-rule:evenodd;clip-rule:evenodd;fill:#000D1E;}
	.st2{filter:url(#Adobe_OpacityMaskFilter);}
	.st3{fill:url(#SVGID_2_);}
	.st4{mask:url(#SVGID_1_);fill-rule:evenodd;clip-rule:evenodd;fill:#1B324F;}
	.st5{filter:url(#Adobe_OpacityMaskFilter_1_);}
	.st6{fill:url(#SVGID_4_);}
	.st7{mask:url(#SVGID_3_);fill-rule:evenodd;clip-rule:evenodd;fill:#1B324F;}
	.st8{fill-rule:evenodd;clip-rule:evenodd;fill:#797979;}
	.st9{fill-rule:evenodd;clip-rule:evenodd;fill:#E6E6E6;}
	.st10{fill-rule:evenodd;clip-rule:evenodd;fill:#B3B3B3;}
	.st11{fill-rule:evenodd;clip-rule:evenodd;fill:#0B427D;}
	.st12{filter:url(#Adobe_OpacityMaskFilter_2_);}
	.st13{fill:url(#SVGID_6_);}
	.st14{mask:url(#SVGID_5_);fill-rule:evenodd;clip-rule:evenodd;fill:#001944;}
	.st15{filter:url(#Adobe_OpacityMaskFilter_3_);}
	.st16{fill:url(#SVGID_8_);}
	.st17{mask:url(#SVGID_7_);fill-rule:evenodd;clip-rule:evenodd;fill:#001944;}
	.st18{fill-rule:evenodd;clip-rule:evenodd;fill:#F6EAD1;}
	.st19{fill-rule:evenodd;clip-rule:evenodd;fill:#6E269E;}
	.st20{filter:url(#Adobe_OpacityMaskFilter_4_);}
	.st21{fill:url(#SVGID_10_);}
	.st22{mask:url(#SVGID_9_);fill-rule:evenodd;clip-rule:evenodd;fill:#581D87;}
	.st23{fill-rule:evenodd;clip-rule:evenodd;fill:#F6773E;}
	.st24{filter:url(#Adobe_OpacityMaskFilter_5_);}
	.st25{fill:url(#SVGID_12_);}
	.st26{mask:url(#SVGID_11_);fill-rule:evenodd;clip-rule:evenodd;fill:#D82E10;}
	.st27{fill-rule:evenodd;clip-rule:evenodd;fill:#E13719;}
	.st28{fill-rule:evenodd;clip-rule:evenodd;fill:#BB1D02;}
	.st29{fill-rule:evenodd;clip-rule:evenodd;fill:#FF8B55;}
	.st30{filter:url(#Adobe_OpacityMaskFilter_6_);}
	.st31{fill:url(#SVGID_14_);}
	.st32{mask:url(#SVGID_13_);fill-rule:evenodd;clip-rule:evenodd;fill:#FFAC80;}
	.st33{filter:url(#Adobe_OpacityMaskFilter_7_);}
	.st34{fill:url(#SVGID_16_);}
	.st35{mask:url(#SVGID_15_);fill-rule:evenodd;clip-rule:evenodd;fill:#E13719;}
	.st36{fill-rule:evenodd;clip-rule:evenodd;fill:#031626;}
	.st37{fill-rule:evenodd;clip-rule:evenodd;}
	.st38{fill-rule:evenodd;clip-rule:evenodd;fill:#FFFFFF;}
	.st39{fill:#BB1D02;}
	.st40{fill-rule:evenodd;clip-rule:evenodd;fill:#7735AA;}
	.st41{fill-rule:evenodd;clip-rule:evenodd;fill:#316CAB;}
	.st42{fill-rule:evenodd;clip-rule:evenodd;fill:#0E0E0E;}
	.st43{fill:#000A1A;}
	.st44{filter:url(#Adobe_OpacityMaskFilter_8_);}
	.st45{fill:url(#SVGID_18_);}
	.st46{mask:url(#SVGID_17_);fill-rule:evenodd;clip-rule:evenodd;fill:#082E4E;}
	.st47{fill:#FFFFFF;}
	.st48{filter:url(#Adobe_OpacityMaskFilter_9_);}
	.st49{fill:url(#SVGID_20_);}
	.st50{mask:url(#SVGID_19_);fill-rule:evenodd;clip-rule:evenodd;fill:#001944;}
	.st51{fill:#E13719;}
	.st52{filter:url(#Adobe_OpacityMaskFilter_10_);}
	.st53{fill:url(#SVGID_22_);}
	.st54{mask:url(#SVGID_21_);fill-rule:evenodd;clip-rule:evenodd;fill:#D82E10;}
	.st55{fill-rule:evenodd;clip-rule:evenodd;fill:#E4E4E4;}
	.st56{fill-rule:evenodd;clip-rule:evenodd;fill:#235C98;}
	.st57{filter:url(#Adobe_OpacityMaskFilter_11_);}
	.st58{fill:url(#SVGID_24_);}
	.st59{mask:url(#SVGID_23_);fill-rule:evenodd;clip-rule:evenodd;fill:#5E99D8;}
	.st60{filter:url(#Adobe_OpacityMaskFilter_12_);}
	.st61{fill:url(#SVGID_26_);}
	.st62{mask:url(#SVGID_25_);fill-rule:evenodd;clip-rule:evenodd;fill:#00204E;}
	.st63{fill:#265787;}
	.st64{filter:url(#Adobe_OpacityMaskFilter_13_);}
	.st65{fill:url(#SVGID_28_);}
	.st66{mask:url(#SVGID_27_);fill-rule:evenodd;clip-rule:evenodd;fill:#00204E;}
	.st67{filter:url(#Adobe_OpacityMaskFilter_14_);}
	.st68{fill:url(#SVGID_30_);}
	.st69{mask:url(#SVGID_29_);fill-rule:evenodd;clip-rule:evenodd;fill:#D82E10;}
	.st70{filter:url(#Adobe_OpacityMaskFilter_15_);}
	.st71{fill:url(#SVGID_32_);}
	.st72{mask:url(#SVGID_31_);fill-rule:evenodd;clip-rule:evenodd;fill:#00204E;}
	.st73{filter:url(#Adobe_OpacityMaskFilter_16_);}
	.st74{fill:url(#SVGID_34_);}
	.st75{mask:url(#SVGID_33_);fill-rule:evenodd;clip-rule:evenodd;fill:#5E99D8;}
</style>
<g>
	<path class="st0" d="M570.4,920.4c-7,7-9.4,16.9-7.2,26.8c2.2,9.8,9.2,19.7,19.7,27.8c10.4,8.1,22,13.2,32,15.5
		c9.8,2.2,18,1.7,22.6-3c4.7-4.7,5.2-12.9,3-22.6c-2.3-10-7.4-21.6-15.5-32c-8.1-10.4-18-17.4-27.8-19.7
		C587.3,911,577.4,913.5,570.4,920.4"/>
	<path class="st1" d="M558.3,1088.4c2.1-1.3,4.1-2.7,6.2-4c0,0-5.5-37.4-16.4-112.3c-34.1-84.3-116.5-139-207.4-137.7
		c-90.9,1.3-171.7,58.2-203.5,143.4c-16.9,137.3-25.3,206-25.3,206c74.1,11,149.5,9.2,222.9-5.2c10.8-44,16.2-66,16.2-66
		c10.4,39.8,15.3,59.5,14.7,59.1C434.1,1154.5,499.1,1126.4,558.3,1088.4"/>
	<defs>
		<filter id="Adobe_OpacityMaskFilter" filterUnits="userSpaceOnUse" x="437.7" y="916.2" width="126.8" height="211.7">
			<feColorMatrix  type="matrix" values="1 0 0 0 0  0 1 0 0 0  0 0 1 0 0  0 0 0 1 0"/>
		</filter>
	</defs>
	<mask maskUnits="userSpaceOnUse" x="437.7" y="916.2" width="126.8" height="211.7" id="SVGID_1_">
		<g class="st2">
			
				<linearGradient id="SVGID_2_" gradientUnits="userSpaceOnUse" x1="-324.5844" y1="1199.9747" x2="-117.469" y2="1254.858" gradientTransform="matrix(1 0 0 1 700.9903 -210.9617)">
				<stop  offset="0" style="stop-color:#000000"/>
				<stop  offset="1" style="stop-color:#FFFFFF"/>
			</linearGradient>
			<rect x="437.7" y="916.2" class="st3" width="126.8" height="211.7"/>
		</g>
	</mask>
	<path class="st4" d="M437.7,916.2c76,54.1,114.1,81.2,114.1,81.2s4.2,29,12.7,87c-24.7,16.3-50.5,30.8-77.1,43.5
		C487.3,1127.9,470.8,1057.3,437.7,916.2"/>
	<defs>
		<filter id="Adobe_OpacityMaskFilter_1_" filterUnits="userSpaceOnUse" x="268.3" y="995.1" width="81.9" height="192.9">
			<feColorMatrix  type="matrix" values="1 0 0 0 0  0 1 0 0 0  0 0 1 0 0  0 0 0 1 0"/>
		</filter>
	</defs>
	<mask maskUnits="userSpaceOnUse" x="268.3" y="995.1" width="81.9" height="192.9" id="SVGID_3_">
		<g class="st5">
			
				<linearGradient id="SVGID_4_" gradientUnits="userSpaceOnUse" x1="-417.86" y1="1183.1837" x2="-281.376" y2="1375.4561" gradientTransform="matrix(1 0 0 1 654.2056 -194.3442)">
				<stop  offset="0" style="stop-color:#000000"/>
				<stop  offset="1" style="stop-color:#FFFFFF"/>
			</linearGradient>
			<rect x="268.3" y="995.1" class="st6" width="81.9" height="192.9"/>
		</g>
	</mask>
	<path class="st7" d="M320.3,995.1c14,47.7,24,88,29.9,120.8c0,0-5.2,20.9-15.6,62.7c-21.9,4.3-44,7.5-66.3,9.5
		C268.3,1188.1,285.7,1123.7,320.3,995.1"/>
	<path class="st8" d="M241.4,850.4c147.8-7.3,218.8,12,213.1,58c-79.5,40.8-174.8,35.9-249.7-12.8c-10.4-10.6-11.1-27.4-1.8-38.9
		C212.3,845.2,228.8,842.5,241.4,850.4"/>
	<path class="st9" d="M250.9,364.6c82.6-35.4,189.2-62.7,216.2,35c0,0-3.4,155.9-10.2,467.6c-77.9,44.6-174.7,39.3-247.2-13.6
		C237.2,527.6,250.9,364.6,250.9,364.6"/>
	<path class="st10" d="M236.5,741.7c-10.5-51.2,16.5-102.6,64.6-123c48.1-20.4,103.9-4.1,133.3,39.1c29.5,43.1,24.5,101-12,138.4
		c0,0-14.9-6.6-44.8-19.7c0,0-28.8-17.5-86.4-52.5C291.2,724,273,729.9,236.5,741.7"/>
	<path class="st11" d="M121.9,365.3c-13.1,180.3-12.2,288.2,2.6,323.8C113.3,771,98.8,854.5,88.9,936.2c-1.7,14.2-2.6,25.7-1.8,31.1
		c0.9,6.3,3.8,9.5,7.8,11.1c16.3,6.6,89.8-5.6,103.6-23.2c7.6-9.6,7.3-24.6,14.9-64.8c0,0,8.4-53.7,25.2-161
		c0.1-132,0.8-232.9,2-302.8c23.3-64.4,10.5-94.4-38.5-90.2C201.9,336.3,175.3,345.9,121.9,365.3"/>
	<defs>
		<filter id="Adobe_OpacityMaskFilter_2_" filterUnits="userSpaceOnUse" x="120.2" y="338.4" width="126.8" height="325.1">
			<feColorMatrix  type="matrix" values="1 0 0 0 0  0 1 0 0 0  0 0 1 0 0  0 0 0 1 0"/>
		</filter>
	</defs>
	<mask maskUnits="userSpaceOnUse" x="120.2" y="338.4" width="126.8" height="325.1" id="SVGID_5_">
		<g class="st12">
			
				<linearGradient id="SVGID_6_" gradientUnits="userSpaceOnUse" x1="-406.0728" y1="734.5895" x2="-451.8329" y2="939.0983" gradientTransform="matrix(1 0 0 1 613.2784 -339.228)">
				<stop  offset="0" style="stop-color:#000000"/>
				<stop  offset="1" style="stop-color:#FFFFFF"/>
			</linearGradient>
			<rect x="120.2" y="338.4" class="st13" width="126.8" height="325.1"/>
		</g>
	</mask>
	<path class="st14" d="M232.4,584.2c9,19.8,8.9,43.1-1.8,63.3c-92.6,55.5-127-33.7-103.1-267.8c-2,64,24.3,125.2,71.4,167.7
		l-24.8-185.1c0,0,11.1-1.9,33.3-5.6c0,0-5.7-5.4-17.2-16.2c3.2-1.2,4.8-1.7,4.8-1.7c43.2-2.8,56.2,8.6,39.1,34
		C251.8,499.9,251.3,570.4,232.4,584.2"/>
	<defs>
		<filter id="Adobe_OpacityMaskFilter_3_" filterUnits="userSpaceOnUse" x="110.6" y="683.6" width="129.1" height="100.3">
			<feColorMatrix  type="matrix" values="1 0 0 0 0  0 1 0 0 0  0 0 1 0 0  0 0 0 1 0"/>
		</filter>
	</defs>
	<mask maskUnits="userSpaceOnUse" x="110.6" y="683.6" width="129.1" height="100.3" id="SVGID_7_">
		<g class="st15">
			
				<linearGradient id="SVGID_8_" gradientUnits="userSpaceOnUse" x1="-388.2134" y1="1196.6851" x2="-445.8119" y2="1005.6075" gradientTransform="matrix(1 0 0 1 610.6269 -305.9708)">
				<stop  offset="0" style="stop-color:#000000"/>
				<stop  offset="1" style="stop-color:#FFFFFF"/>
			</linearGradient>
			<rect x="110.6" y="683.6" class="st16" width="129.1" height="100.3"/>
		</g>
	</mask>
	<path class="st17" d="M239.6,716.7c-9.5-54.7-51.1-41.6-124.9,39.5c0,0-1.4,9.3-4.2,27.8c0,0,42-14.1,125.9-42.2
		C238.6,725,239.6,716.7,239.6,716.7"/>
	<path class="st18" d="M270.7,285.3c3.2,40.4,37,71.5,77.5,71.5c40.5,0,74.3-31.1,77.5-71.5C382,244.7,314.4,244.7,270.7,285.3"/>
	<path class="st19" d="M363.6,405.9c-20.3,6.6-30.4,9.9-30.4,9.9c-38.6,284-58,426-58,426c35.4,33.2,53,49.8,53,49.8
		c34.6-32.3,52-48.5,52-48.5C369.1,551.7,363.6,405.9,363.6,405.9"/>
	<defs>
		<filter id="Adobe_OpacityMaskFilter_4_" filterUnits="userSpaceOnUse" x="291.2" y="653.8" width="86.4" height="122.7">
			<feColorMatrix  type="matrix" values="1 0 0 0 0  0 1 0 0 0  0 0 1 0 0  0 0 0 1 0"/>
		</filter>
	</defs>
	<mask maskUnits="userSpaceOnUse" x="291.2" y="653.8" width="86.4" height="122.7" id="SVGID_9_">
		<g class="st20">
			
				<linearGradient id="SVGID_10_" gradientUnits="userSpaceOnUse" x1="-263.7666" y1="1197.1787" x2="-337.2218" y2="992.0906" gradientTransform="matrix(1 0 0 1 660.5249 -308.0409)">
				<stop  offset="0" style="stop-color:#000000"/>
				<stop  offset="1" style="stop-color:#FFFFFF"/>
			</linearGradient>
			<rect x="291.2" y="653.8" class="st21" width="86.4" height="122.7"/>
		</g>
	</mask>
	<path class="st22" d="M375.2,712.6c-49.3-57-74.6-72.6-76.1-46.6c0,0-2.6,19.3-7.9,58c8.3,16.4,37.1,33.9,86.4,52.5
		C376,733.9,375.2,712.6,375.2,712.6"/>
	<path class="st23" d="M424.5,303.8c1.8,28.4-12.6,55.3-37.3,69.5c-24.7,14.2-55.2,13.1-78.8-2.8c-23.6-15.9-36.1-43.8-32.3-71.9
		c3.1-19.1,4.6-28.6,4.6-28.6c90.1,0,135.1,0.1,135.1,0.1C421.6,292.5,424.5,303.8,424.5,303.8"/>
	<defs>
		<filter id="Adobe_OpacityMaskFilter_5_" filterUnits="userSpaceOnUse" x="295.9" y="275.4" width="128.3" height="97.8">
			<feColorMatrix  type="matrix" values="1 0 0 0 0  0 1 0 0 0  0 0 1 0 0  0 0 0 1 0"/>
		</filter>
	</defs>
	<mask maskUnits="userSpaceOnUse" x="295.9" y="275.4" width="128.3" height="97.8" id="SVGID_11_">
		<g class="st24">
			
				<linearGradient id="SVGID_12_" gradientUnits="userSpaceOnUse" x1="-254.5338" y1="808.2344" x2="-323.2465" y2="714.3248" gradientTransform="matrix(1 0 0 1 661.8251 -419.4116)">
				<stop  offset="0" style="stop-color:#000000"/>
				<stop  offset="1" style="stop-color:#FFFFFF"/>
			</linearGradient>
			<rect x="295.9" y="275.4" class="st25" width="128.3" height="97.8"/>
		</g>
	</mask>
	<path class="st26" d="M424.3,316.3c-0.8,18.1-9.8,34.8-24.4,45.5c-14.6,10.7-33.3,14.1-50.7,9.4c0,0-17.7-24.7-53.2-74.2
		c78.4-14.4,117.6-21.6,117.6-21.6C420.7,302.7,424.3,316.3,424.3,316.3"/>
	<path class="st23" d="M442.8,170c-13.6,0.9-27,15.6-30,32.7c-3,17.2,5.6,30.4,19.2,29.5c13.6-0.9,27-15.6,30-32.7
		C465,182.3,456.4,169.1,442.8,170"/>
	<path class="st27" d="M437.3,182.3c-8.2,0.5-16.4,9.4-18.2,19.8c-1.8,10.4,3.4,18.4,11.6,17.8c8.2-0.5,16.4-9.4,18.2-19.8
		C450.8,189.7,445.6,181.7,437.3,182.3"/>
	<path class="st28" d="M431.7,190c-4.9,0.3-9.8,5.6-10.8,11.8c-1.1,6.2,2,11,7,10.7c4.9-0.3,9.8-5.6,10.8-11.8
		C439.7,194.4,436.6,189.7,431.7,190"/>
	<path class="st23" d="M251.3,174.5c13.6,0.9,27,15.6,30,32.7c3,17.2-5.6,30.4-19.2,29.5c-13.6-0.9-27-15.6-30-32.7
		C229.1,186.8,237.7,173.6,251.3,174.5"/>
	<path class="st27" d="M256.7,186.8c8.2,0.5,16.4,9.4,18.2,19.8c1.8,10.4-3.4,18.4-11.6,17.8c-8.2-0.5-16.4-9.4-18.2-19.8
		C243.3,194.2,248.5,186.2,256.7,186.8"/>
	<path class="st28" d="M262.4,194.5c4.9,0.3,9.8,5.6,10.8,11.8c1.1,6.2-2,11-7,10.7c-4.9-0.3-9.8-5.6-10.8-11.8
		C254.3,198.9,257.5,194.2,262.4,194.5"/>
	<path class="st29" d="M431.3,177.6c5.2-34.2-12.1-68-43.6-84.9c-31.5-16.9-70.5-13.5-98.3,8.7c-27.7,22.1-38.3,58.4-26.6,91.1
		c0.7,48.2,29.1,136,86.5,136.5C410.5,329.5,435.3,228.5,431.3,177.6"/>
	<defs>
		<filter id="Adobe_OpacityMaskFilter_6_" filterUnits="userSpaceOnUse" x="277.3" y="82" width="154.8" height="209.1">
			<feColorMatrix  type="matrix" values="1 0 0 0 0  0 1 0 0 0  0 0 1 0 0  0 0 0 1 0"/>
		</filter>
	</defs>
	<mask maskUnits="userSpaceOnUse" x="277.3" y="82" width="154.8" height="209.1" id="SVGID_13_">
		<g class="st30">
			
				<linearGradient id="SVGID_14_" gradientUnits="userSpaceOnUse" x1="-337.8526" y1="615.9567" x2="-222.9454" y2="656.5399" gradientTransform="matrix(1 0 0 1 656.6888 -442.112)">
				<stop  offset="0" style="stop-color:#000000"/>
				<stop  offset="1" style="stop-color:#FFFFFF"/>
			</linearGradient>
			<rect x="277.3" y="82" class="st31" width="154.8" height="209.1"/>
		</g>
	</mask>
	<path class="st32" d="M431.3,177.6c5.2-34.2-12.1-68-43.6-84.9c-31.5-16.9-70.5-13.5-98.3,8.7c-4.5,3.6-8.5,7.6-12.1,11.8
		c74.2,4.5,132.9,66,132.9,141.3c0,12.7-1.7,25-4.8,36.6C425.7,257.2,433.7,208.3,431.3,177.6"/>
	<defs>
		<filter id="Adobe_OpacityMaskFilter_7_" filterUnits="userSpaceOnUse" x="258.1" y="84" width="131.6" height="225.1">
			<feColorMatrix  type="matrix" values="1 0 0 0 0  0 1 0 0 0  0 0 1 0 0  0 0 0 1 0"/>
		</filter>
	</defs>
	<mask maskUnits="userSpaceOnUse" x="258.1" y="84" width="131.6" height="225.1" id="SVGID_15_">
		<g class="st33">
			
				<linearGradient id="SVGID_16_" gradientUnits="userSpaceOnUse" x1="-288.9343" y1="701.8875" x2="-354.1353" y2="586.5458" gradientTransform="matrix(1 0 0 1 651.3676 -437.1335)">
				<stop  offset="0" style="stop-color:#000000"/>
				<stop  offset="1" style="stop-color:#FFFFFF"/>
			</linearGradient>
			<rect x="258.1" y="84" class="st34" width="131.6" height="225.1"/>
		</g>
	</mask>
	<path class="st35" d="M389.7,115.5c-22-32.3-65.6-41.2-98.5-20.1c-32.8,21.1-42.9,64.5-22.7,97.9c3.6,47.2,17.8,85.8,42.7,115.8
		c-15.2-31-18.2-66.6-8.6-99.8C346.2,195.6,379.2,159.9,389.7,115.5"/>
	<path class="st36" d="M427.9,179c11,0.3,45.6-122.6-34.4-126c-36.1-26-85.3-23.6-118.7,5.7c-68.8,60.5-2.4,166.4-7.6,124.9
		c-1-8.1-1.4-19.5,4-30.2c18.4,40.6,87.8,24.9,125.8-51.4c0.1,33.1,26.1,30.2,28.6,63.2C426.3,173.1,425.8,178.9,427.9,179"/>
	<path class="st37" d="M306.4,203.5L306.4,203.5c2,0,3.7,1.7,3.7,3.7v4.2c0,2-1.7,3.7-3.7,3.7h0c-2,0-3.7-1.7-3.7-3.7v-4.2
		C302.6,205.2,304.3,203.5,306.4,203.5"/>
	<path class="st37" d="M387.6,203.5L387.6,203.5c2,0,3.7,1.7,3.7,3.7v4.2c0,2-1.7,3.7-3.7,3.7c-2,0-3.7-1.7-3.7-3.7v-4.2
		C383.9,205.2,385.6,203.5,387.6,203.5"/>
	<path class="st38" d="M399.2,190.8c3.7,0,6.6,3,6.6,6.6c0,3.7-3,6.6-6.6,6.6c-3.7,0-6.6-3-6.6-6.6
		C392.6,193.7,395.5,190.8,399.2,190.8"/>
	<path class="st38" d="M318.2,190.8c3.7,0,6.6,3,6.6,6.6c0,3.7-3,6.6-6.6,6.6c-3.7,0-6.6-3-6.6-6.6
		C311.6,193.7,314.6,190.8,318.2,190.8"/>
	<path class="st27" d="M357.3,233.4c0.6-0.1,1.2-0.2,1.8-0.2c2.4,0,4.5,0.9,6,2.4c1.5,1.5,2.3,3.6,2.2,5.9c-0.1,2.3-1.1,4.4-2.6,5.9
		c-1.5,1.5-3.5,2.4-5.6,2.4c-0.3,0-0.7,0-1-0.1c-0.6,1.7-1.6,3.2-2.9,4.5c-2.1,2.1-4.9,3.4-7.9,3.4c-3,0-5.8-1.3-7.9-3.4
		c-1.3-1.3-2.3-2.8-2.9-4.6c-0.4,0.1-0.9,0.1-1.3,0.1c-2.2,0-4.2-0.9-5.6-2.4c-1.5-1.5-2.5-3.6-2.6-5.9c-0.1-2.3,0.7-4.4,2.2-5.9
		c1.5-1.5,3.6-2.4,6-2.4c0.5,0,1,0,1.5,0.1c0-2,0.1-4.2,0.4-6.3c0.9-6.4,2.7-12.2,4.5-16.5c1.8-4.2,3.6-6.8,5.4-6.8
		c1.9,0,3.7,2.7,5.4,6.8c1.8,4.3,3.6,10.1,4.5,16.5C357.1,229.2,357.3,231.4,357.3,233.4"/>
	<path class="st39" d="M320.9,270.2c-0.9-1-0.8-2.4,0.1-3.3c1-0.9,2.4-0.8,3.3,0.1c3,3.2,6.5,5.6,10.4,7.3c3.9,1.7,8.1,2.6,12.4,2.6
		c4.3,0,8.6-0.9,12.4-2.6c3.9-1.7,7.4-4.2,10.4-7.3c0.9-1,2.4-1,3.3-0.1c1,0.9,1,2.4,0.1,3.3c-3.4,3.6-7.5,6.5-11.9,8.4
		c-4.5,2-9.4,3-14.3,3c-5,0-9.8-1-14.3-3C328.4,276.7,324.3,273.9,320.9,270.2"/>
	<path class="st39" d="M333.4,285.6c-0.5-0.5-0.4-1.3,0.1-1.8c0.5-0.5,1.3-0.4,1.8,0.1c1.6,1.7,3.5,3,5.5,3.9
		c2.1,0.9,4.3,1.4,6.6,1.4c2.3,0,4.6-0.5,6.6-1.4c2.1-0.9,4-2.2,5.5-3.9c0.5-0.5,1.3-0.5,1.8-0.1c0.5,0.5,0.5,1.3,0.1,1.8
		c-1.8,1.9-4,3.5-6.4,4.5c-2.4,1-5,1.6-7.6,1.6c-2.6,0-5.2-0.6-7.6-1.6C337.4,289.1,335.2,287.5,333.4,285.6"/>
	<path class="st40" d="M349.1,371.2c14.6,0,26.4,11.8,26.4,26.4c0,14.6-11.8,26.4-26.4,26.4s-26.4-11.8-26.4-26.4
		C322.8,383,334.6,371.2,349.1,371.2"/>
	<path class="st38" d="M390.8,413c25.5-28.6,43.9-62.6,53.7-99.1c-0.4-12.5-7.6-23.5-18.7-28.7c-12.4,35.8-37.1,64.6-74.1,86.3
		C365.5,384.6,378.6,398.4,390.8,413"/>
	<path class="st38" d="M305.7,413c-25.5-28.6-43.9-62.6-53.7-99.1c0.4-12.5,7.6-23.5,18.7-28.7c12.4,35.8,37.1,64.6,74.1,86.3
		C330.9,384.6,317.9,398.4,305.7,413"/>
	<path class="st11" d="M540.9,996.4c45.4,4.4,89.6,3.8,100-5.5c7.2-6.4,4-21.4-5.2-58.4c-9.2-37.4-23-92.5-41.4-165.9
		c0,0-1.9-137,12.2-414.3c-2.5,0.5-57.1-15.6-163.9-48.2c-0.3,144.9-0.5,217.3-0.5,217.3c-16,86-30.5,160.1-43.4,222.5
		c8.3,60.1,14.7,140.3,33.2,197.3C444.3,979,465.9,989.1,540.9,996.4"/>
	<path class="st41" d="M187.7,370.7c33.8,239.1,50.7,358.6,50.7,358.6c4.4-46.6,35.4-362,35.9-362.4l-17.9-66.2l-67.5,34l40.9,27.8
		L187.7,370.7z"/>
	<path class="st38" d="M320.8,527.1l68.3-11.8c6.4-1.1,11.6,3.4,11.6,10v115c0,6.6-5.2,12.9-11.6,14L320.8,666
		c-6.4,1.1-11.6-3.4-11.6-10V541C309.2,534.5,314.4,528.2,320.8,527.1"/>
	<path class="st42" d="M323.2,530.9l72.6-12.6c5.2-0.9,9.4,2.7,9.4,8.1v119.5c0,5.3-4.2,10.5-9.4,11.4l-72.6,12.6
		c-5.2,0.9-9.4-2.7-9.4-8.1V542.3C313.7,536.9,318,531.8,323.2,530.9"/>
	<path class="st38" d="M332,544L332,544c2.8-0.4,5,1.5,5,4.3v14c0,2.8-2.3,5.5-5,6h0c-2.8,0.4-5-1.5-5-4.3v-14
		C326.9,547.1,329.2,544.4,332,544"/>
	<path class="st38" d="M307,888.5l47.2,2.2c9.3,0.4,16.6,8.4,16.1,17.7l-0.8,17.7c-0.4,9.3-8.4,16.6-17.7,16.1l-47.2-2.2
		c-9.3-0.4-16.6-8.4-16.1-17.7l0.8-17.7C289.7,895.4,297.7,888.1,307,888.5"/>
	<path class="st8" d="M309.7,893.8l41.2,1.9c7.4,0.3,13.3,6.7,12.9,14.2l-0.6,14.2c-0.3,7.4-6.7,13.3-14.2,12.9l-41.2-1.9
		c-7.4-0.3-13.3-6.7-12.9-14.2l0.6-14.2C295.9,899.3,302.3,893.5,309.7,893.8"/>
	<path class="st38" d="M294.5,911.3l36.8,1.7c0.9,0,1.6,0.8,1.6,1.7l-0.1,1.7c0,0.9-0.8,1.6-1.7,1.6l-36.8-1.7
		c-0.9,0-1.6-0.8-1.6-1.7l0.1-1.7C292.8,911.9,293.6,911.2,294.5,911.3"/>
	<path d="M354.5,1111.6c0.4,1.9-0.8,3.8-2.7,4.2c-1.9,0.4-3.8-0.8-4.2-2.7l-27.3-118.1c-0.4-1.9,0.8-3.8,2.7-4.2
		c1.9-0.4,3.8,0.8,4.2,2.7L354.5,1111.6z"/>
	<path class="st43" d="M369.9,177.4c-1.8,0.8-3.9-0.1-4.6-1.9c-0.8-1.8,0.1-3.9,1.9-4.6c6.2-2.6,12.9-3.6,19.4-2.9
		c6.5,0.7,12.9,2.9,18.4,6.8c1.6,1.1,2,3.3,0.9,4.9c-1.1,1.6-3.3,2-4.9,0.9c-4.6-3.1-9.8-5-15.1-5.6
		C380.5,174.4,375,175.2,369.9,177.4"/>
	<defs>
		<filter id="Adobe_OpacityMaskFilter_8_" filterUnits="userSpaceOnUse" x="330.3" y="37.7" width="114.6" height="141.3">
			<feColorMatrix  type="matrix" values="1 0 0 0 0  0 1 0 0 0  0 0 1 0 0  0 0 0 1 0"/>
		</filter>
	</defs>
	<mask maskUnits="userSpaceOnUse" x="330.3" y="37.7" width="114.6" height="141.3" id="SVGID_17_">
		<g class="st44">
			
				<linearGradient id="SVGID_18_" gradientUnits="userSpaceOnUse" x1="-365.0071" y1="620.4965" x2="-207.1998" y2="544.5795" gradientTransform="matrix(1 0 0 1 671.3169 -473.0734)">
				<stop  offset="0" style="stop-color:#000000"/>
				<stop  offset="1" style="stop-color:#FFFFFF"/>
			</linearGradient>
			<rect x="330.3" y="37.7" class="st45" width="114.6" height="141.3"/>
		</g>
	</mask>
	<path class="st46" d="M427.9,179c11,0.3,45.6-122.6-34.4-126c-10.2-7.3-21.4-12.4-33-15.3c20.1,30.7,21.2,71.7-0.4,104.1
		c-8,12-18.3,21.5-29.8,28.5c23.5-9.3,48.7-31.9,66.8-68.3c0.1,33.1,26.1,30.2,28.6,63.2C426.3,173.1,425.8,178.9,427.9,179"/>
	<path class="st47" d="M407.3,189.2c-5.1-5.1-12.2-8.3-20-8.3c-7.8,0-14.8,3.2-19.9,8.3c-5.1,5.1-8.3,12.2-8.3,20
		c0,7.8,3.2,14.8,8.3,19.9c5.1,5.1,12.2,8.3,19.9,8.3c7.8,0,14.8-3.2,20-8.3c5.1-5.1,8.3-12.2,8.3-19.9
		C415.6,201.4,412.4,194.4,407.3,189.2 M326.3,189.2c-5.1-5.1-12.2-8.3-19.9-8.3c-7.8,0-14.8,3.2-20,8.3c-5.1,5.1-8.3,12.2-8.3,20
		c0,7.8,3.2,14.8,8.3,19.9c5.1,5.1,12.2,8.3,20,8.3c7.8,0,14.8-3.2,19.9-8.3c5.1-5.1,8.3-12.2,8.3-19.9
		C334.6,201.4,331.4,194.4,326.3,189.2z M417.6,198.9c0,0.1-0.1,0.1-0.1,0.1c1.1,3.2,1.7,6.6,1.7,10.1c0,8.8-3.6,16.7-9.3,22.5
		c-5.7,5.7-13.7,9.3-22.5,9.3c-8.8,0-16.7-3.6-22.5-9.3c-5.7-5.7-9.3-13.7-9.3-22.5c0-3,0.4-5.9,1.2-8.7c-1-1.3-2.3-2.3-3.7-3.1
		c-1.8-1-4-1.6-6.1-1.5c-2.2,0-4.3,0.6-6.1,1.7c-1.5,0.9-2.8,2-3.8,3.5c0.7,2.6,1.1,5.4,1.1,8.2c0,8.8-3.6,16.7-9.3,22.5
		c-5.7,5.7-13.7,9.3-22.5,9.3c-8.8,0-16.7-3.6-22.5-9.3c-5.7-5.7-9.3-13.7-9.3-22.5c0-3.1,0.5-6.2,1.3-9.1c-0.1-0.1-0.3-0.2-0.4-0.3
		l-23.8-22.1c-0.7-0.7-0.8-1.8-0.1-2.5c0.7-0.7,1.8-0.8,2.5-0.1l23.1,21.4c1.6-3.7,3.9-7,6.7-9.9c5.7-5.7,13.7-9.3,22.5-9.3
		c8.8,0,16.7,3.6,22.5,9.3c2.9,2.9,5.3,6.5,6.9,10.4c1-1,2.1-1.9,3.4-2.6c2.3-1.4,5-2.1,7.8-2.2c2.8,0,5.5,0.7,7.9,2
		c1.2,0.7,2.3,1.5,3.4,2.4c1.6-3.8,3.9-7.1,6.8-10c5.7-5.7,13.7-9.3,22.5-9.3c8.8,0,16.7,3.6,22.5,9.3c2.4,2.4,4.5,5.3,6,8.4
		l17.3-25c0.6-0.8,1.7-1,2.5-0.4c0.8,0.6,1,1.7,0.4,2.5L417.6,198.9z"/>
	<path class="st43" d="M323,178.4c1.8,0.8,3.9-0.1,4.6-1.9c0.8-1.8-0.1-3.9-1.9-4.6c-6.2-2.6-12.9-3.6-19.4-2.9
		c-6.5,0.7-12.9,2.9-18.4,6.8c-1.6,1.1-2,3.3-0.9,4.9c1.1,1.6,3.3,2,4.9,0.9c4.6-3.1,9.8-5,15.1-5.6
		C312.4,175.4,317.9,176.2,323,178.4"/>
	<defs>
		<filter id="Adobe_OpacityMaskFilter_9_" filterUnits="userSpaceOnUse" x="398.8" y="716" width="216.3" height="133.8">
			<feColorMatrix  type="matrix" values="1 0 0 0 0  0 1 0 0 0  0 0 1 0 0  0 0 0 1 0"/>
		</filter>
	</defs>
	<mask maskUnits="userSpaceOnUse" x="398.8" y="716" width="216.3" height="133.8" id="SVGID_19_">
		<g class="st48">
			
				<linearGradient id="SVGID_20_" gradientUnits="userSpaceOnUse" x1="76.9554" y1="1268.8069" x2="-256.5073" y2="1014.9901" gradientTransform="matrix(1 0 0 1 690.2283 -287.7633)">
				<stop  offset="0" style="stop-color:#000000"/>
				<stop  offset="1" style="stop-color:#FFFFFF"/>
			</linearGradient>
			<rect x="398.8" y="716" class="st49" width="216.3" height="133.8"/>
		</g>
	</mask>
	<path class="st50" d="M413.9,716.3C537.4,762.8,599.2,786,599.2,786s5.3,21.2,15.9,63.5c-13.8,3.1-84.1-17.3-210.7-61.3
		c-3.7-29.6-5.6-44.4-5.6-44.4C400.5,723.4,405.6,714.3,413.9,716.3"/>
	<path class="st23" d="M312.2,545.7c15.3,38.2,16.1,80.7,2.2,119.4c0,0-10,0.6-29.9,1.7c0,0-6.2,3.8-18.7,11.3
		c-16.7-2.3-30.5-14.3-35.1-30.5c-4.6-16.2,0.8-33.7,13.8-44.4c6.7-14.5,10.1-21.7,10.1-21.7c0.9-10.2,9.6-18,19.9-17.7
		c4-8.4,13-13.2,22.2-11.8C299.8,546.6,306.2,544,312.2,545.7"/>
	<path class="st51" d="M265,599.9c-1.8-0.8-2.6-2.8-1.8-4.6c0.8-1.8,2.8-2.6,4.6-1.8l19,8.2c0.3,0.1,0.5,0.3,0.8,0.5l0,0l21.3,16.6
		c1.5,1.2,1.8,3.4,0.6,4.9c-1.2,1.5-3.4,1.8-4.9,0.6l-21-16.4L265,599.9z"/>
	<path class="st51" d="M273.4,578.7c-1.7-0.9-2.5-3-1.6-4.7c0.9-1.7,3-2.5,4.7-1.6l22.2,11c0.2,0.1,0.4,0.2,0.6,0.4l15.5,11.8
		c1.5,1.2,1.8,3.4,0.7,4.9c-1.2,1.5-3.4,1.8-4.9,0.7l-15.2-11.6L273.4,578.7z"/>
	<path class="st51" d="M293.4,564.1c-1.6-1.1-2-3.3-1-4.9c1.1-1.6,3.3-2,4.9-1l17,11.5c1.6,1.1,2,3.3,1,4.9c-1.1,1.6-3.3,2-4.9,1
		L293.4,564.1z"/>
	<defs>
		<filter id="Adobe_OpacityMaskFilter_10_" filterUnits="userSpaceOnUse" x="238.6" y="621.1" width="68.6" height="55.9">
			<feColorMatrix  type="matrix" values="1 0 0 0 0  0 1 0 0 0  0 0 1 0 0  0 0 0 1 0"/>
		</filter>
	</defs>
	<mask maskUnits="userSpaceOnUse" x="238.6" y="621.1" width="68.6" height="55.9" id="SVGID_21_">
		<g class="st52">
			
				<linearGradient id="SVGID_22_" gradientUnits="userSpaceOnUse" x1="-366.0064" y1="942.8287" x2="-380.6685" y2="1028.629" gradientTransform="matrix(1 0 0 1 645.9817 -335.5197)">
				<stop  offset="0" style="stop-color:#000000"/>
				<stop  offset="1" style="stop-color:#FFFFFF"/>
			</linearGradient>
			<rect x="238.6" y="621.1" class="st53" width="68.6" height="55.9"/>
		</g>
	</mask>
	<path class="st54" d="M238.6,653.7c1,11.9,10,21.5,21.8,23.3c0,0,7.6-4.7,22.7-14c0,0,6.1-0.4,18.4-1.1c0,0,1.9-9.9,5.6-29.7
		c-4.5-8.4-14.1-12.7-23.4-10.6c-9.3,2.1-16.1,10.1-16.5,19.7C267.2,641.2,257.7,645.4,238.6,653.7"/>
	<path class="st55" d="M225.7,609c-15.5,10.4-23.8,28.5-21.7,47c2.1,18.5,14.4,34.2,31.8,40.8c0,0,13.2-5.5,39.5-16.4
		c-17.1-2.3-31.6-13.6-38-29.6c-6.4-16-3.7-34.2,7.2-47.6C244.4,603.1,238.2,605.1,225.7,609"/>
	<path class="st56" d="M252.2,695.8c-16.8-8-28.8-23.5-32.6-41.7c-3.7-18.2,1.3-37.1,13.6-51.1c0,0-26.9,8.3-80.6,25l-25.1-248.2
		c-0.2-16.6-7.7-19.3-16.8-6.6c-10.6,14.7-27.5,62.8-44.5,116.4c-8.7,27.6-21.7,63-33.3,98.3c-8.3,25.3-18.5,54.8-21.4,83.7
		c-3.3,33,5,72.5,34.5,91.8c11.5,7.5,24.8,7,38.5,3.1c19-5.4,41.7-14.4,65.1-24.6C185.2,726.4,222.7,708.1,252.2,695.8"/>
	<defs>
		<filter id="Adobe_OpacityMaskFilter_11_" filterUnits="userSpaceOnUse" x="98.6" y="395.8" width="134.6" height="283.4">
			<feColorMatrix  type="matrix" values="1 0 0 0 0  0 1 0 0 0  0 0 1 0 0  0 0 0 1 0"/>
		</filter>
	</defs>
	<mask maskUnits="userSpaceOnUse" x="98.6" y="395.8" width="134.6" height="283.4" id="SVGID_23_">
		<g class="st57">
			
				<linearGradient id="SVGID_24_" gradientUnits="userSpaceOnUse" x1="-580.1483" y1="866.3489" x2="-352.2164" y2="876.3046" gradientTransform="matrix(1 0 0 1 607.3098 -334.8952)">
				<stop  offset="0" style="stop-color:#000000"/>
				<stop  offset="1" style="stop-color:#FFFFFF"/>
			</linearGradient>
			<rect x="98.6" y="395.8" class="st58" width="134.6" height="283.4"/>
		</g>
	</mask>
	<path class="st59" d="M152.3,624.4c2.6,1.5,3.9,2.4,3.8,2.6c27.3-8.6,53.1-16.6,77.2-24.1c-8.5,9.7-13.7,22-14.6,34.8
		c0,0-18.5,6.9-55.6,20.6c-5.3,12.9-17.9,21.1-31.8,20.8c-13.9-0.4-26.1-9.3-30.7-22.4c-4.6-13.1-0.6-27.7,10.1-36.7
		c12.4-149.6,18.6-224.4,18.6-224.4c7.8,76.9,15.1,149.4,22,217.4C151.9,620.7,152.3,624.4,152.3,624.4"/>
	<defs>
		<filter id="Adobe_OpacityMaskFilter_12_" filterUnits="userSpaceOnUse" x="22.5" y="387.4" width="210.9" height="369.9">
			<feColorMatrix  type="matrix" values="1 0 0 0 0  0 1 0 0 0  0 0 1 0 0  0 0 0 1 0"/>
		</filter>
	</defs>
	<mask maskUnits="userSpaceOnUse" x="22.5" y="387.4" width="210.9" height="369.9" id="SVGID_25_">
		<g class="st60">
			
				<linearGradient id="SVGID_26_" gradientUnits="userSpaceOnUse" x1="-322.2068" y1="714.763" x2="-622.6525" y2="1091.9222" gradientTransform="matrix(1 0 0 1 586.2895 -313.3318)">
				<stop  offset="0" style="stop-color:#000000"/>
				<stop  offset="1" style="stop-color:#FFFFFF"/>
			</linearGradient>
			<rect x="22.5" y="387.4" class="st61" width="210.9" height="369.9"/>
		</g>
	</mask>
	<path class="st62" d="M215,664.9c3.4,11,9.8,20.9,18.4,28.7c-33,16.3-124,60.1-156.5,63.5c-16.5,1.7-28.7-4.5-37.2-14.8
		c-22.3-26.8-18.8-71.3-11.8-102.9c4-17.9,9.4-34.8,13.9-48.6c15-46.1,37.9-113.8,68.8-203.2l-2.7,30.4L89.7,635.5
		c-17.3,4.2-29.8,19.4-30.6,37.2c-0.8,17.8,10.3,34,27.2,39.7c16.9,5.7,35.6-0.5,45.7-15.1L215,664.9z"/>
	<path class="st63" d="M151.7,624.6c1.9-0.5,3.8,0.6,4.3,2.5c0.5,1.9-0.6,3.8-2.5,4.3l-37.7,10.3c-0.5,0.1-1,0.2-1.4,0.1l0,0
		c-10.4-1.6-20.9-0.6-30.7,2.5c-9.8,3.2-18.8,8.5-26.3,15.9c-7.5,7.4-13.1,16.3-16.5,26c-3.4,9.7-4.5,20.1-3.2,30.6
		c0.2,1.9-1.1,3.7-3.1,3.9c-1.9,0.2-3.7-1.1-3.9-3.1c-1.4-11.5-0.1-23.1,3.6-33.8c3.7-10.7,9.9-20.6,18.3-28.7
		c8.3-8.1,18.3-14.1,29.1-17.6c10.6-3.4,21.9-4.5,33.2-2.9L151.7,624.6z"/>
	<defs>
		<filter id="Adobe_OpacityMaskFilter_13_" filterUnits="userSpaceOnUse" x="413.2" y="319.7" width="149.3" height="391.1">
			<feColorMatrix  type="matrix" values="1 0 0 0 0  0 1 0 0 0  0 0 1 0 0  0 0 0 1 0"/>
		</filter>
	</defs>
	<mask maskUnits="userSpaceOnUse" x="413.2" y="319.7" width="149.3" height="391.1" id="SVGID_27_">
		<g class="st64">
			
				<linearGradient id="SVGID_28_" gradientUnits="userSpaceOnUse" x1="-2.4327" y1="736.0166" x2="-292.2349" y2="885.787" gradientTransform="matrix(1 0 0 1 694.209 -326.173)">
				<stop  offset="0" style="stop-color:#000000"/>
				<stop  offset="1" style="stop-color:#FFFFFF"/>
			</linearGradient>
			<rect x="413.2" y="319.7" class="st65" width="149.3" height="391.1"/>
		</g>
	</mask>
	<path class="st66" d="M413.2,672.6c16.5,26.6,46.9,41.3,78,37.6c31.1-3.7,57.3-25,67.2-54.7c9.9-29.7,1.7-62.5-21-84
		c-37.6-26.3-59.7-69.4-59-115.3c0.7-45.8,24-88.4,62.4-113.5c-54.4-15.4-81.6-23-81.6-23C428.5,555,413.2,672.6,413.2,672.6"/>
	<path class="st41" d="M423.4,366.6c-16.4,251.5-24.7,377.2-24.7,377.2S435.8,619.4,510,370.7c0,0-14-2.7-42.1-8.2
		c0,0,13.6-9.3,40.9-27.8c0,0-22.5-11.3-67.5-34C429.4,344.6,423.4,366.6,423.4,366.6"/>
	<path class="st29" d="M435.1,636.4c11.5,13.9,14.9,32.8,9,49.9c-6,17.1-20.4,29.7-38.1,33.4c0,0-10.3-2.4-30.8-7.1
		c-25.2-5.8-37.4-8.7-48.5-18.4c-13-11.4-39.7-42.9-25.4-60.5c-2.6-6.8-1.8-14.4,2.2-20.5c-2.7-4-3.2-9.1-1.4-13.6
		c1.8-4.5,5.7-7.8,10.4-8.9c-22.7-14.4-14.4-31.1,8.2-20c24.7,14,46,33.4,70.5,47.3c7.8,4.4,12.2,5.6,13.1-1.5
		c1.4-10.6-5.3-45.2,0-51.4c2.2-2.6,6.3,0.3,9.7,4.6C427.7,586.6,430.3,615.3,435.1,636.4"/>
	<path class="st51" d="M310.5,595.2c-1.6-1.2-1.9-3.4-0.7-4.9c1.2-1.6,3.4-1.9,4.9-0.7l61.9,46.4c1.6,1.2,1.9,3.4,0.7,4.9
		c-1.2,1.6-3.4,1.9-4.9,0.7L310.5,595.2z"/>
	<path class="st51" d="M302.7,618.5c-1.4-1.3-1.5-3.6-0.1-5c1.3-1.4,3.6-1.5,5-0.1l16.9,16l26.6,18.4c1.6,1.1,2,3.3,0.9,4.9
		c-1.1,1.6-3.3,2-4.9,0.9l-26.8-18.5c-0.2-0.1-0.3-0.2-0.5-0.4L302.7,618.5z"/>
	<path class="st51" d="M298,641.9c-1.1-1.6-0.7-3.8,1-4.9c1.6-1.1,3.8-0.7,4.9,1l7.6,11.4l28.4,18.1c1.6,1.1,2.1,3.2,1.1,4.9
		c-1.1,1.6-3.2,2.1-4.9,1.1l-29.1-18.5l0,0c-0.4-0.3-0.7-0.6-1-1L298,641.9z"/>
	<defs>
		<filter id="Adobe_OpacityMaskFilter_14_" filterUnits="userSpaceOnUse" x="333.8" y="665.6" width="109.8" height="50.5">
			<feColorMatrix  type="matrix" values="1 0 0 0 0  0 1 0 0 0  0 0 1 0 0  0 0 0 1 0"/>
		</filter>
	</defs>
	<mask maskUnits="userSpaceOnUse" x="333.8" y="665.6" width="109.8" height="50.5" id="SVGID_29_">
		<g class="st67">
			
				<linearGradient id="SVGID_30_" gradientUnits="userSpaceOnUse" x1="-318.4908" y1="988.6174" x2="-236.6004" y2="1051.791" gradientTransform="matrix(1 0 0 1 672.2926 -324.714)">
				<stop  offset="0" style="stop-color:#000000"/>
				<stop  offset="1" style="stop-color:#FFFFFF"/>
			</linearGradient>
			<rect x="333.8" y="665.6" class="st68" width="109.8" height="50.5"/>
		</g>
	</mask>
	<path class="st69" d="M441.5,665.6c3.6,10.5,2.5,22.1-3,31.8c-5.6,9.7-15,16.5-25.9,18.7c-44.6-9.3-70.8-17.3-78.7-23.9
		C405.6,674.5,441.5,665.6,441.5,665.6"/>
	<path class="st55" d="M445.4,735.7c13.8-11.7,22.2-28.5,23.2-46.6c1.1-18-5.2-35.7-17.4-49c0,0-5.4-1.2-16.1-3.7
		c8.1,16.3,8.6,35.3,1.3,52c-7.2,16.7-21.5,29.3-38.9,34.5C429.5,731.4,445.4,735.7,445.4,735.7"/>
	<path class="st56" d="M441.3,634c12,16.7,16.4,37.6,12.3,57.7c-4.1,20.1-16.4,37.6-34,48.2c44.5,11,168,49.6,206.1,48.9
		c61.1-1.1,66.5-39.9,59.4-107.4c-4.3-41.1-35.6-398.9-101.8-317.8C571.5,378,558.8,409,549,442.7c-26.1,89.6-13.1,121.4-2.4,212
		C482,642.9,441.3,634,441.3,634"/>
	<defs>
		<filter id="Adobe_OpacityMaskFilter_15_" filterUnits="userSpaceOnUse" x="453.2" y="398.8" width="169.4" height="349.6">
			<feColorMatrix  type="matrix" values="1 0 0 0 0  0 1 0 0 0  0 0 1 0 0  0 0 0 1 0"/>
		</filter>
	</defs>
	<mask maskUnits="userSpaceOnUse" x="453.2" y="398.8" width="169.4" height="349.6" id="SVGID_31_">
		<g class="st70">
			
				<linearGradient id="SVGID_32_" gradientUnits="userSpaceOnUse" x1="-57.9452" y1="900.2144" x2="-241.7823" y2="882.0407" gradientTransform="matrix(1 0 0 1 705.2803 -315.7889)">
				<stop  offset="0" style="stop-color:#000000"/>
				<stop  offset="1" style="stop-color:#FFFFFF"/>
			</linearGradient>
			<rect x="453.2" y="398.8" class="st71" width="169.4" height="349.6"/>
		</g>
	</mask>
	<path class="st72" d="M453.2,727.8c15.9-24.5,17.1-55.7,3.2-81.4c68.8,12.9,103.2,19.4,103.2,19.4
		c-25.9-136.6-17.8-169.4,19.5-266.9c29,199,43.5,298.5,43.5,298.5c-16-15.7-40.8-18.2-59.6-5.9c-18.8,12.3-26.5,36-18.5,57
		C483.7,734.7,453.2,727.8,453.2,727.8"/>
	<defs>
		<filter id="Adobe_OpacityMaskFilter_16_" filterUnits="userSpaceOnUse" x="575.2" y="365.8" width="112.2" height="423.1">
			<feColorMatrix  type="matrix" values="1 0 0 0 0  0 1 0 0 0  0 0 1 0 0  0 0 0 1 0"/>
		</filter>
	</defs>
	<mask maskUnits="userSpaceOnUse" x="575.2" y="365.8" width="112.2" height="423.1" id="SVGID_33_">
		<g class="st73">
			
				<linearGradient id="SVGID_34_" gradientUnits="userSpaceOnUse" x1="-230.1929" y1="784.2459" x2="13.5595" y2="978.5817" gradientTransform="matrix(1 0 0 1 738.9694 -304.6139)">
				<stop  offset="0" style="stop-color:#000000"/>
				<stop  offset="1" style="stop-color:#FFFFFF"/>
			</linearGradient>
			<rect x="575.2" y="365.8" class="st74" width="112.2" height="423.1"/>
		</g>
	</mask>
	<path class="st75" d="M599.4,786c-6.7-1-12.7-2.2-18.2-3.5c-10.9-20.4-6.6-45.7,10.5-61.3c17.1-15.7,42.6-17.7,62-5.1
		c-13.8-115.2-26.7-220.4-39-315.6c-2.6-16.5-0.1-28,7.2-34.7c8.3,12.5,15.9,31.5,22.9,57.1c16.8,65.4,29.8,147.2,38.8,245.6
		c5,43.1,4.8,71.6-0.5,85.3c-4.2,14.3-13.3,24.3-27.3,29.9c-10.8,3.5-20.7,5.3-29.7,5.1v0C620.4,789,611.5,788.1,599.4,786"/>
	<path class="st63" d="M545.9,658.2c-1.9-0.4-3.1-2.3-2.7-4.2c0.4-1.9,2.3-3.1,4.2-2.7c6.6,1.4,13.9,2.8,21.3,4.2
		c19.9,3.8,40.8,7.8,58.1,13.8c11.6,4,22.4,9.4,30.5,17.2c8.3,7.9,13.8,18.3,14.4,31.9c0.1,1.9-1.4,3.6-3.4,3.7
		c-1.9,0.1-3.6-1.4-3.7-3.4c-0.5-11.6-5.1-20.4-12.2-27.1c-7.3-6.9-17.2-11.9-28-15.6c-16.9-5.8-37.6-9.8-57.2-13.5
		C560,661.1,552.8,659.7,545.9,658.2"/>
</g>
</svg>
